/* XPM */
static char *back_v2[] = {
/* columns rows colors chars-per-pixel */
"42 42 9 1 ",
"  c black",
". c #222222",
"X c #483B3A",
"o c gray29",
"O c #775C55",
"+ c #627B83",
"@ c #94A4AC",
"# c #BDCDCD",
"$ c white",
/* pixels */
"..........................................",
".XXXXXXXXXXXOOOXXXXXOOOXXOOOOOOOOOOOOOOOO.",
".XXXXXXXXXXXOOOXXXXXOOOXXOOOOOOOOOOOOOOOO.",
".XXXXXXXXXXXOOOXXXXXOOOXXOOOOOOOOOOOOOOOO.",
".XXXXXXXXXXXXXXXXXXXXXXXXXXXXXXXXXXXXXXOO.",
".XXXXXXXXXXXXXXXXXXXXXXXXXXXXXXXXXXXXXXOO.",
".XXXXXXXXXXXXXXXXXXXXXXXXXXXXXXXXXXXXXXOO.",
".XXXXXXXXXXXXXXXo        oXXXXXXXXXXXXXOO.",
".XXXXXXXXXXXXo   +@@##@@+   oXXXXXXXXXXOO.",
".XXXXXXXXXXX  @@$$$$$$$$$$@@   XXXXXXXXOO.",
".XXXXXXXXXXX  @@$$$$$$$$$$@@   XXXXXXXXOO.",
".XXXXXXXXX  +#$$$$$$$$$$$$$$#++ XXXXXXXOO.",
".XXXXXXXX ++$$$$$$$$$$$$$$$$$$$+ XXXXXXOO.",
".XXXXXXXo ##$$$$$$$$$$$$$$$$$$$# ooXXXXOO.",
".XXXXXXXo ##$$$$$$$$$$$$$$$$$$$# ooXXXXOO.",
".XXXXXXX @$$$$$$$$$$$$$$$$$$$$$$@  XXXXXX.",
".XXXXXoo #$$$$$$$$$$$$$$$$$$$$$$#  oXXXXX.",
".XXXXX  +$$$$$$$$$$$$$$$$$$$$$$$$++ XXXOO.",
".XXXXX  +$$$$$$$$$$$$$$$$$$$$$$$$++ XXXOO.",
".o      @$$$$$$$$$$$$$$$$$$$$$$$$@@     o.",
". @@##@@#$$$$$$$$$$$$$$$$$$$$$$$$##@###@ .",
".o  +#@@#$$$$$$$$$$$$$$$$$$$$$$$$##@#++ o.",
".o  +#@@#$$$$$$$$$$$$$$$$$$$$$$$$##@#++ o.",
".Xoo  ++@$$$$$$$$$$$$$$$$$$$$$$$$@@+   oX.",
".XXXXo  +$$$$$$$$$$$$$$$$$$$$$$$$++ oXXXX.",
".XXXXo  +$$$$$$$$$$$$$$$$$$$$$$$$++ oXXXX.",
".XXXXXoo #$$$$$$$$$$$$$$$$$$$$$$#  oXXXXX.",
".XXXXXXX @##$$$$$$##@@##$$$$$$$#@  XXXXXX.",
".XXXXXXXo #######@++##++@####### ooXXXXOO.",
".XXXXXXXo #######@++##++@####### ooXXXXOO.",
".XXXXXXXX ++##@@@#$$$$$$#@@@###+ XXXXXXOO.",
".XXXXXXXXX  +################++ XXXXXXXXX.",
".XXXXXXXXXXX  ++@########@++   XXXXXXXXXX.",
".XXXXXXXXXXX  ++@########@++   XXXXXXXXXX.",
".XXXXXXXXXXXXo   +@@@@@@+   oXXXXXXXXXXXX.",
".XXXXXXXXXXXXXXXo        oXXXXXXXXXXXXXXX.",
".XXXXXXXXXXXXXXXXXXXXXXXXXXXXXXXXXXXXXXXX.",
".XXXXXXXXXXXXXXXXXXXXXXXXXXXXXXXXXXXXXXXX.",
".XXXXXXXXXXXXXXXXXXXXXXXXXXXXXXXXXXXXXXXX.",
".XXXXXXXXXXXXXXXXXXXXXXXXXXXXXXXXXXXXXXXX.",
".XXXXXXXXXXXXXXXXXXXXXXXXXXXXXXXXXXXXXXXX.",
".........................................."
};
