/* XPM */
static char *back[] = {
/* columns rows colors chars-per-pixel */
"31 29 157 2 ",
"   c black",
".  c #010101",
"X  c #030304",
"o  c #040405",
"O  c #040505",
"+  c #050606",
"@  c #050707",
"#  c #060707",
"$  c #070708",
"%  c #070808",
"&  c gray3",
"*  c #080909",
"=  c #090909",
"-  c #090A0A",
";  c gray4",
":  c #0B0B0B",
">  c #0C0C0C",
",  c #0C0C0D",
"<  c #0C0D0D",
"1  c #0D0E0E",
"2  c gray6",
"3  c #0C0F10",
"4  c #101111",
"5  c #111112",
"6  c #101212",
"7  c #111213",
"8  c #111415",
"9  c #121414",
"0  c #131515",
"q  c #131616",
"w  c #141516",
"e  c #141616",
"r  c #151617",
"t  c #161616",
"y  c #151718",
"u  c #1B1C1D",
"i  c gray25",
"p  c #414141",
"a  c gray26",
"s  c #434343",
"d  c #444444",
"f  c gray27",
"g  c #464646",
"h  c gray28",
"j  c #484848",
"k  c #494949",
"l  c gray29",
"z  c #44565B",
"x  c #45565B",
"c  c #45565C",
"v  c #45575C",
"b  c #51656B",
"n  c #52656B",
"m  c #53676D",
"M  c #54686E",
"N  c #566A70",
"B  c #566B72",
"V  c #566C73",
"C  c #5B6E75",
"Z  c #5B6F75",
"A  c #5C7178",
"S  c #677278",
"D  c #677378",
"F  c #707E84",
"G  c #717F85",
"H  c #6D848C",
"J  c #6E858C",
"K  c #758289",
"L  c #71888F",
"P  c #7B888E",
"I  c #7C898F",
"U  c #7E8C92",
"Y  c #7F8C93",
"T  c #849197",
"R  c #839198",
"E  c #80949B",
"W  c #82949C",
"Q  c #84989E",
"!  c #8E9C9D",
"~  c #8F9E9F",
"^  c #8FA0A7",
"/  c #95A2A3",
"(  c #93A3A4",
")  c #91A2A8",
"_  c #92A2AA",
"`  c #93A3AB",
"'  c #95A5AD",
"]  c #9AA8A8",
"[  c #98A8AF",
"{  c #9AAAB1",
"}  c #9BABB1",
"|  c #9DAFB1",
" . c #9CACB2",
".. c #9CACB3",
"X. c #9DACB3",
"o. c #9CADB3",
"O. c #9EAEB4",
"+. c #A1AEAE",
"@. c #A2AFAF",
"#. c #A1AFB6",
"$. c #A3B1B1",
"%. c #A0B0B5",
"&. c #A4B5B7",
"*. c #A8B8BA",
"=. c #A9BABB",
"-. c #ACBDBF",
";. c #ACBEBF",
":. c #ADBFC0",
">. c #AEBFC1",
",. c #AFBFC2",
"<. c #B1C1C2",
"1. c #B2C3C4",
"2. c #B3C3C5",
"3. c #B3C4C5",
"4. c #B4C4C6",
"5. c #B5C5C6",
"6. c #B5C5C7",
"7. c #B6C6C8",
"8. c #B8C8C9",
"9. c #B9C9CA",
"0. c #BACACA",
"q. c #BACACB",
"w. c #BBCACB",
"e. c #BACBCB",
"r. c #BBCBCB",
"t. c #BBCBCC",
"y. c #BCCCCC",
"u. c #BDCDCD",
"i. c #BFCDCE",
"p. c #C0CFCF",
"a. c #C2D0D0",
"s. c #C5D3D3",
"d. c #C6D4D4",
"f. c #C8D5D5",
"g. c #D8DDDF",
"h. c #E3E8E9",
"j. c #E6EAEB",
"k. c #E7EBEC",
"l. c #EAEDEF",
"z. c #EAEEEF",
"x. c #EBEFEF",
"c. c #ECEFF0",
"v. c #EDEFF1",
"b. c #ECF0F0",
"n. c #EEF0F2",
"m. c #EFF1F2",
"M. c #F0F2F3",
"N. c #F2F5F5",
"B. c #F3F6F6",
"V. c #F4F6F6",
"C. c #F4F7F7",
"Z. c #F5F7F7",
"A. c #F5F8F8",
"S. c #FDFDFD",
"D. c #FEFEFE",
"F. c white",
"G. c None",
/* pixels */
"G.G.G.G.G.G.G.G.G.G.G.G.G.G.G.G.G.G.G.G.G.G.G.G.G.G.G.G.G.G.G.",
"G.G.G.G.G.G.G.G.G.G.G.G.G.G.G.G.G.G.G.G.G.G.G.G.G.G.G.G.G.G.G.",
"G.G.G.G.G.G.G.G.G.G.G.G.G.G.G.G.G.G.G.G.G.G.G.G.G.G.G.G.G.G.G.",
"G.G.G.G.G.G.G.G.G.G.G.G.G.G.G.G.G.G.G.G.G.G.G.G.G.G.G.G.G.G.G.",
"G.G.G.G.G.G.G.G.G.G.G.G.p X O O O O < h G.G.G.G.G.G.G.G.G.G.G.",
"G.G.G.G.G.G.G.G.G.G.p % q H ..a.t._ A : 6 h G.G.G.G.G.G.G.G.G.",
"G.G.G.G.G.G.G.G.G.% q #.F.F.F.F.F.F.F.m.T : O G.G.G.G.G.G.G.G.",
"G.G.G.G.G.G.G.G.3 L s.F.F.F.F.F.F.F.F.F.Z.1.C & G.G.G.G.G.G.G.",
"G.G.G.G.G.G.G.$ L F.F.F.F.F.F.F.F.F.F.F.F.F.h.B   G.G.G.G.G.G.",
"G.G.G.G.G.G.p y s.F.F.F.F.F.F.F.F.F.F.F.F.F.A.+.e h G.G.G.G.G.",
"G.G.G.G.G.G.O X.F.F.F.F.F.F.F.F.F.F.F.F.F.F.F.v.I   G.G.G.G.G.",
"G.G.G.G.G.p q d.F.F.F.F.F.F.F.F.F.F.F.F.F.F.F.Z.+.e s G.G.G.G.",
"G.G.G.G.G.O H F.F.F.F.F.F.F.F.F.F.F.F.F.F.F.F.F.h.m   G.G.G.G.",
"G.p 6 e e y X.F.F.F.F.F.F.F.F.F.F.F.F.F.F.F.F.F.v.U 6 e e u p ",
"G.: R 1.e.' i.F.F.F.F.F.F.F.F.F.F.F.F.F.F.F.F.F.N.4.X.8.*.S : ",
"G.k : V $.^ t.F.F.F.F.F.F.F.F.F.F.F.F.F.F.F.F.F.N.<._ ( z e j ",
"G.G.k   < B _ F.F.F.F.F.F.F.F.F.F.F.F.F.F.F.F.F.l.W v : < k G.",
"G.G.G.G.h < Z Z.F.F.F.F.F.F.F.F.F.F.F.F.F.F.F.F.g.z e l G.G.G.",
"G.G.G.G.G.h : 8.Z.F.F.F.F.F.N.v.m.C.F.F.F.F.S.l./ : k G.G.G.G.",
"G.G.G.G.G.G.6 U p.N.Z.C.N.l.;.{ X.4.m.Z.Z.N.l.<.S < G.G.G.G.G.",
"G.G.G.G.G.G.h : <.t.t.4.3.{ Q d.i.E X.4.4.i.e.~ : k G.G.G.G.G.",
"G.G.G.G.G.G.G.o M <.8...X.a.N.N.B.m.8.{ %.8.| z   G.G.G.G.G.G.",
"G.G.G.G.G.G.G.G.@ M ] ;.4.i.i.i.i.u.r.4.=.~ z   G.G.G.G.G.G.G.",
"G.G.G.G.G.G.G.G.G.  q b P ;.4.4.4.1.&.F z <   G.G.G.G.G.G.G.G.",
"G.G.G.G.G.G.G.G.G.G.h   e m K K K K z ; : k G.G.G.G.G.G.G.G.G.",
"G.G.G.G.G.G.G.G.G.G.G.G.p           : k G.G.G.G.G.G.G.G.G.G.G.",
"G.G.G.G.G.G.G.G.G.G.G.G.G.G.G.G.G.G.G.G.G.G.G.G.G.G.G.G.G.G.G.",
"G.G.G.G.G.G.G.G.G.G.G.G.G.G.G.G.G.G.G.G.G.G.G.G.G.G.G.G.G.G.G.",
"G.G.G.G.G.G.G.G.G.G.G.G.G.G.G.G.G.G.G.G.G.G.G.G.G.G.G.G.G.G.G."
};
