/* XPM */
static char *front_v2[] = {
/* columns rows colors chars-per-pixel */
"42 42 12 1 ",
"  c black",
". c #222222",
"X c #483B3A",
"o c gray29",
"O c #775C55",
"+ c #9C2031",
"@ c #CD3139",
"# c #627B83",
"$ c #DE5A8B",
"% c #94A4AC",
"& c #BDCDCD",
"* c white",
/* pixels */
"..........................................",
".XXXXXXXXXXXOOOXXXXXOOOXXOOOOOOOOOOOOOOOO.",
".XXXXXXXXXXXOOOXXXXXOOOXXOOOOOOOOOOOOOOOO.",
".XXXXXXXXXXXOOOXXXXXOOOXXOOOOOOOOOOOOOOOO.",
".XXXXXXXXXXXXXXXXXXXXXXXXXXXXXXXXXXXXXXOO.",
".XXXXXXXXXXXXXXXo        oXXXXXXXXXXXXXOO.",
".XXXXXXXXXXXXo   #%%&&%%#   oXXXXXXXXXXOO.",
".XXXXXXXXXXXXo   #%%&&%%#   oXXXXXXXXXXOO.",
".XXXXXXXXXX   %%**********%%  XXXXXXXXXOO.",
".XXXXXXXXX ##&**************&#  XXXXXXXOO.",
".XXXXXXXX #*******************## XXXXXXOO.",
".XXXXXXXX #*******************## XXXXXXOO.",
".XXXXXXoo &*******************&& ooXXXXOO.",
".XXXXXX  %***&**************&***%  XXXXOO.",
".XXXXXo  &***&%%&*&&##&&*&%%&***&  oXXXOO.",
".XXXXXo  &***&%%&*&&##&&*&%%&***&  oXXXXX.",
".XXXXX ##*****&&oooo&&oooo&&*****## XXXXX.",
".o     %%*******& &&**&& &*******%%     o.",
". %&&&%&&****&*** ****** ***&****&&%&&&% .",
". %&&&%&&****&*** ****** ***&****&&%&&&% .",
".o ##&%&&****%&&**********&&%****&&%&## o.",
".Xo   #%%****#%%&&&&&&&&&&%%#****%%#   oO.",
".Xo   #%%****#%%&&&&&&&&&&%%#****%%#   oO.",
".XXXXo ##&***%##*#**##**#*##%***&## oXXXX.",
".XXXXXo  &&**&%%&+++@@+++&%%&*&&&  oXXXXX.",
".XXXXXX  %&&&&%%++@@$$@@++%%&&&&%  XXXXXX.",
".XXXXXX  %&&&&%%++@@$$@@++%%&&&&%  XXXXXX.",
".XXXXXXoo &&&&&&++@@$$@@++&&&&&& ooXXXXXX.",
".XXXXXXXX #&&&&&%+++@@+++%&&&&## XXXXXXOO.",
".XXXXXXXXX ##&&&%#++++++#%&&&#  XXXXXXXOO.",
".XXXXXXXXX ##&&&%#++++++#%&&&#  XXXXXXXOO.",
".XXXXXXXXXX   ##++######++##  XXXXXXXXXXX.",
".XXXXXXXXXXXXo  @@++oo++@@  oXXXXXXXXXXXX.",
".XXXXXXXXXXXXX  @@@@++@@@@  XXXXXXXXXXXXX.",
".XXXXXXXXXXXXX  @@@@++@@@@  XXXXXXXXXXXXX.",
".XXXXXXXXXXXXX  @@++  ++@@  XXXXXXXXXXXXX.",
".XXXXXXXXXXXXX  ++  oo  ++  XXXXXXXXXXXXX.",
".XXXXXXXXXXXXXXX  ooXXoo  XXXXXXXXXXXXXXX.",
".XXXXXXXXXXXXXXX  ooXXoo  XXXXXXXXXXXXXXX.",
".XXXXXXXXXXXXXXXXXXXXXXXXXXXXXXXXXXXXXXXX.",
".XXXXXXXXXXXXXXXXXXXXXXXXXXXXXXXXXXXXXXXX.",
".........................................."
};
