/* XPM */
static char *left_v2[] = {
/* columns rows colors chars-per-pixel */
"42 42 14 1 ",
"  c black",
". c #222222",
"X c #483B3A",
"o c gray29",
"O c #775C55",
"+ c #9C2031",
"@ c #CD3139",
"# c #627B83",
"$ c #DE5A8B",
"% c #94A4AC",
"& c #B1B1B1",
"* c #BDCDCD",
"= c #CBCBCB",
"- c white",
/* pixels */
"..........................................",
".XXXXXXXXXXXOOOXXXXXOOOXXOOOOOOOOOOOOOOOO.",
".XXXXXXXXXXXOOOXXXXXOOOXXOOOOOOOOOOOOOOOO.",
".XXXXXXXXXXXOOOXXXXXOOOXXOOOOOOOOOOOOOOOO.",
".XXXXXXXXXXXXXXXXXXXXXXXXXXXXXXXXXXXXXXOO.",
".XXXXXXXXXXXXXXoo        ooXXXXXXXXXXXXOO.",
".XXXXXXXXXXXo    #%***%##   ooXXXXXXXXXOO.",
".XXXXXXXXX   %%------------%   XXXXXXXXOO.",
".XXXXXXXX ##*---------------**# XXXXXXXOO.",
".XXXXXXXX ##*---------------**# XXXXXXXOO.",
".XXXXXXXX ##*---------------**# XXXXXXXOO.",
".XXXXXXX #---------------------#  XXXXXOO.",
".XXXXXXo *---------------------*  oXXXXOO.",
".XXXo   %#**-%%-----------------%% XXXXOO.",
".XXXo   %#**-%%-----------------%% XXXXOO.",
".XXX oo *ooo###**--%%-----------** oXXXXX.",
".XXX oo#-*  ***%%oo**-------------# XXXXX.",
".XXXo  %-- &---** *-------------**% oXXOO.",
".XXXo  %-- =---** *-------------**% oXXOO.",
".XXXX  %*-------- ------------*%##oo oooO.",
".XXXX  %#%**-------***------------*o#   O.",
".XXXX  %#*%%%%%%%%%%%#------------#%%   O.",
".XXXX  %#*%%%%%%%%%%%#------------#%%   O.",
".XXXX  %#*%%%%%%%%%%%#------------#%%   X.",
".XXXX  %%-++*##--#-**#---------*%%%%#   X.",
".XXXXoo %%++++++++-++%--------****** oooX.",
".XXXXXX #%+++++@@$$@@%------*******# XXXX.",
".XXXXXX #%+++++@@$$@@%------*******# XXXX.",
".XXXXXXo %%%+@@$$$@++*************% oXXOO.",
".XXXXXXXo ###++++++##***********## oXXXOO.",
".XXXXXXX +++#######%%*********%#  oXXXXOO.",
".XXXXXXX +++#######%%*********%#  oXXXXXX.",
".XXXXXXX +@@+oo++@+##******%##  ooXXXXXXX.",
".XXXXXXX +@@+++@@@@  %%%%##   oXXXXXXXXXX.",
".XXXXXXX +@@+++@@@@  %%%%##   oXXXXXXXXXX.",
".XXXXXXXo ++   ++@@        oXXXXXXXXXXXXX.",
".XXXXXXXXo  ooo  ++  XXXXXXXXXXXXXXXXXXXX.",
".XXXXXXXXo  ooo  ++  XXXXXXXXXXXXXXXXXXXX.",
".XXXXXXXXXXXXXXoo  XXXXXXXXXXXXXXXXXXXXXX.",
".XXXXXXXXXXXXXXXXXXXXXXXXXXXXXXXXXXXXXXXX.",
".XXXXXXXXXXXXXXXXXXXXXXXXXXXXXXXXXXXXXXXX.",
".........................................."
};
