/* XPM */
static char *left[] = {
/* columns rows colors chars-per-pixel */
"36 36 211 2 ",
"   c black",
".  c #010102",
"X  c #060606",
"o  c #070707",
"O  c #0E0304",
"+  c #0E0205",
"@  c gray3",
"#  c #090909",
"$  c #0C0E0F",
"%  c #0D0E0F",
"&  c #0E0E0E",
"*  c #130406",
"=  c #17090B",
"-  c #150B0C",
";  c #0C0F10",
":  c #0D0F10",
">  c #101213",
",  c #111414",
"<  c #121415",
"1  c #141516",
"2  c #161818",
"3  c #161819",
"4  c #171919",
"5  c #171A1B",
"6  c #181D1E",
"7  c #1C1E1E",
"8  c gray12",
"9  c #20060A",
"0  c #1A1E20",
"q  c #1B1F20",
"w  c #1E2123",
"e  c #3A3A3A",
"r  c gray23",
"t  c #3C3B3B",
"y  c #3B3C3C",
"u  c #3C3C3C",
"i  c #3F3F3F",
"p  c gray25",
"a  c #414141",
"s  c gray26",
"d  c #434343",
"f  c #494949",
"g  c #4B4E4F",
"h  c #55494C",
"j  c #4D4F50",
"k  c #4F5051",
"l  c #5A5A5A",
"z  c #585C5D",
"x  c #4E6268",
"c  c #596E75",
"v  c #5D7278",
"b  c #5E737A",
"n  c #5E747A",
"m  c #5E747B",
"M  c #666868",
"N  c #6E6872",
"B  c #67727B",
"V  c #63787F",
"C  c #8C1D2B",
"Z  c #8E1D2C",
"A  c #8E1E2D",
"S  c #8D2D3B",
"D  c #9B2031",
"F  c #9C2031",
"G  c #9C2232",
"H  c #9A2533",
"J  c #982A3A",
"K  c #992B3A",
"L  c #9C2A39",
"P  c #9E2F3E",
"I  c #A02131",
"U  c #A12131",
"Y  c #A02232",
"T  c #A22232",
"R  c #A62332",
"E  c #A12438",
"W  c #A22539",
"Q  c #B32A31",
"!  c #B02A32",
"~  c #BD363F",
"^  c #C22E38",
"/  c #C62E38",
"(  c #C82F38",
")  c #CC3038",
"_  c #CD3139",
"`  c #C8323E",
"'  c #8F3241",
"]  c #903342",
"[  c #9D3E4C",
"{  c #9E3F4E",
"}  c #A33342",
"|  c #A33644",
" . c #CA3441",
".. c #C13D46",
"X. c #A34351",
"o. c #627982",
"O. c #677C83",
"+. c #667D85",
"@. c #6C7880",
"#. c #6B7F86",
"$. c #727D85",
"%. c #DC5581",
"&. c #D85784",
"*. c #DC5684",
"=. c #DE628A",
"-. c #6C8087",
";. c #6C838B",
":. c #6C848B",
">. c #6E858D",
",. c #6F868D",
"<. c #768289",
"1. c #70878F",
"2. c #71888F",
"3. c #728990",
"4. c #758B92",
"5. c #758C92",
"6. c #7D8C93",
"7. c #788D94",
"8. c #7D9298",
"9. c #808F97",
"0. c #958892",
"q. c #829299",
"w. c #86949A",
"e. c #8A999F",
"r. c #95939C",
"t. c #8D9CA3",
"y. c #8D9EA6",
"u. c #8E9FA7",
"i. c #909EA4",
"p. c #929EA5",
"a. c #9D9AA3",
"s. c #8FA0A8",
"d. c #92A3AA",
"f. c #93A3AB",
"g. c #94A2AA",
"h. c #95A5AC",
"j. c #97A7AE",
"k. c #97A7AF",
"l. c #9CA9A9",
"z. c #98A8AF",
"x. c #9DACAD",
"c. c #99A9B0",
"v. c #9CAAB2",
"b. c #9CABB2",
"n. c #9DABB3",
"m. c #9DACB3",
"M. c #9EACB3",
"N. c #A1AFB6",
"B. c #A0B0B1",
"V. c #A2B0B0",
"C. c #A2B0B1",
"Z. c #A3B1B2",
"A. c #A5B1B1",
"S. c #A2B1B7",
"D. c #A6B5B6",
"F. c #AAB6BD",
"G. c #ABB9B9",
"H. c #ABB9BA",
"J. c #AEBFC1",
"K. c #B0C1C3",
"L. c #B4C1C1",
"P. c #B2C3C4",
"I. c #B4C4C6",
"U. c #B4C5C6",
"Y. c #BBC7C7",
"T. c #B8C8C9",
"R. c #B9C9C9",
"E. c #BACACA",
"W. c #BCCBCC",
"Q. c #BCCCCC",
"!. c #BDCCCD",
"~. c #BDCDCD",
"^. c #BECDCD",
"/. c #C1CFD0",
"(. c #C2D1D1",
"). c #C3D1D1",
"_. c #CAD7D7",
"`. c #D9DBDB",
"'. c #DADCDD",
"]. c #DDE2E3",
"[. c #EDE0E2",
"{. c #E3E7E9",
"}. c #E4E8E9",
"|. c gray91",
" X c #EAEAEA",
".X c #E8ECED",
"XX c #EAEDEE",
"oX c #EBEEEF",
"OX c #F3E5E7",
"+X c #ECEFF0",
"@X c #EDF0F1",
"#X c #EFF1F1",
"$X c #EFF3F3",
"%X c #F0F3F3",
"&X c #F1F3F4",
"*X c #F0F4F4",
"=X c #F2F4F5",
"-X c #F4F5F6",
";X c #F5F6F7",
":X c #F5F7F7",
">X c #F6F7F8",
",X c #F6F8F8",
"<X c #F7F9F9",
"1X c #F8F9F9",
"2X c #F8FAFA",
"3X c #F9FAFA",
"4X c gray99",
"5X c #FDFDFE",
"6X c #FEFEFE",
"7X c white",
"8X c None",
/* pixels */
"8X8X8X8X8X8X8X8X8X8X8X8X8X8X8X8X8X8X8X8X8X8X8X8X8X8X8X8X8X8X8X8X8X8X8X8X",
"8X8X8X8X8X8X8X8X8X8X8X8X8X8X8X8X8X8X8X8X8X8X8X8X8X8X8X8X8X8X8X8X8X8X8X8X",
"8X8X8X8X8X8X8X8X8X8X8X8X8X8X8X8X8X8X8X8X8X8X8X8X8X8X8X8X8X8X8X8X8X8X8X8X",
"8X8X8X8X8X8X8X8X8X8X8X8X8X8X8X8X8X8X8X8X8X8X8X8X8X8X8X8X8X8X8X8X8X8X8X8X",
"8X8X8X8X8X8X8X8X8X8X8X8X8X8X8X8X8X8X8X8X8X8X8X8X8X8X8X8X8X8X8X8X8X8X8X8X",
"8X8X8X8X8X8X8X8X8X8X8X8X8X8X8X8X8X8X8X8X8X8X8X8X8X8X8X8X8X8X8X8X8X8X8X8X",
"8X8X8X8X8X8X8X8X8X8X8X8X8Xp           # f 8X8X8X8X8X8X8X8X8X8X8X8X8X8X8X",
"8X8X8X8X8X8X8X8X8X8X8Xp   , b e.H.D.9.x X # f 8X8X8X8X8X8X8X8X8X8X8X8X8X",
"8X8X8X8X8X8X8X8X8X8X  5 p.|.%X:X3X:X=X$X'.<.X   8X8X8X8X8X8X8X8X8X8X8X8X",
"8X8X8X8X8X8X8X8X8X& V L.:X7X7X7X7X7X7X7X7XXXC.x   8X8X8X8X8X8X8X8X8X8X8X",
"8X8X8X8X8X8X8X8X; #.%X3X7X7X7X7X7X7X7X7X7X7X,X].x   8X8X8X8X8X8X8X8X8X8X",
"8X8X8X8X8X8X8Xi 2 W.7X7X7X7X7X7X7X7X7X7X7X7X7X:Xx.# f 8X8X8X8X8X8X8X8X8X",
"8X8X8X8X8Xp   5 q.4._.=XF.7X7X7X7X7X7X7X7X7X7X7XXX<.X 8X8X8X8X8X8X8X8X8X",
"8X8X8X8X8X& r 5 H.j z 1.2._.7X=XF.7X7X7X7X7X7X7X,XC.# f 8X8X8X8X8X8X8X8X",
"8X8X8X8X8X# g -.$Xl.7 I.L.u.l M /.7X7X7X7X7X7X7X7X{.x X 8X8X8X8X8X8X8X8X",
"8X8X8X8X8Xr 5 m.7X`.7 3X$XC.7 Y.3X7X7X7X7X7X7X7X<XW.6.# f 8X8X8X8X8X8X8X",
"8X8X8X8X8X8X> c._.7X|.7X7X`.w 2X7X7X7X7X7X7X<X~.j.O.k t & f 8X8X8X8X8X8X",
"8X8X8X8X8X8X, u.1.S._.7X7X7X|.2X)._.7X7X7X7X7X<X=X.XV.g x X 8X8X8X8X8X8X",
"8X8X8X8X8X8X, u.;.I.c.n.n.n.M.M.d.8.7X7X7X7X7X7X7XoX>.t.6.  8X8X8X8X8X8X",
"8X8X8X8X8X8X, d.n.[.[ J.7.}.7.$XJ.4.7X7X7X7X7X<X~.n.d.u.c   8X8X8X8X8X8X",
"8X8X8X8X8X8Xi w h.a.D P J } X.OX[ n.7X7X7X7X<X).~.T.E.A.> p 8X8X8X8X8X8X",
"8X8X8X8X8X8X8X$ ;.r.F F U  .&.*...N.7X7X7X<X).~.~.~.L.b   8X8X8X8X8X8X8X",
"8X8X8X8X8X8X8Xy 6 g.0.Y  .*.%.` | E.).).).).~.~.~.T.w.> d 8X8X8X8X8X8X8X",
"8X8X8X8X8X8X8X8Xi 6 +.N U E L L $.~.~.~.~.~.~.~.P.m 1 d 8X8X8X8X8X8X8X8X",
"8X8X8X8X8X8X8X8X= Z ] o.B B B @.j.~.~.~.~.~.E.f.m > d 8X8X8X8X8X8X8X8X8X",
"8X8X8X8X8X8X8X8X* U / S h L ~ ] >.~.~.~.T.d.b ; , p 8X8X8X8X8X8X8X8X8X8X",
"8X8X8X8X8X8X8X8X* R / D D ) ) Q w j.j.s.m & > p 8X8X8X8X8X8X8X8X8X8X8X8X",
"8X8X8X8X8X8X8X8Xt = Z * = R _ Q   $ > & > p 8X8X8X8X8X8X8X8X8X8X8X8X8X8X",
"8X8X8X8X8X8X8X8X8Xt = d t = Y C   8X8X8X8X8X8X8X8X8X8X8X8X8X8X8X8X8X8X8X",
"8X8X8X8X8X8X8X8X8X8X8X8X8Xi O + 8X8X8X8X8X8X8X8X8X8X8X8X8X8X8X8X8X8X8X8X",
"8X8X8X8X8X8X8X8X8X8X8X8X8X8X8X8X8X8X8X8X8X8X8X8X8X8X8X8X8X8X8X8X8X8X8X8X",
"8X8X8X8X8X8X8X8X8X8X8X8X8X8X8X8X8X8X8X8X8X8X8X8X8X8X8X8X8X8X8X8X8X8X8X8X",
"8X8X8X8X8X8X8X8X8X8X8X8X8X8X8X8X8X8X8X8X8X8X8X8X8X8X8X8X8X8X8X8X8X8X8X8X",
"8X8X8X8X8X8X8X8X8X8X8X8X8X8X8X8X8X8X8X8X8X8X8X8X8X8X8X8X8X8X8X8X8X8X8X8X",
"8X8X8X8X8X8X8X8X8X8X8X8X8X8X8X8X8X8X8X8X8X8X8X8X8X8X8X8X8X8X8X8X8X8X8X8X",
"8X8X8X8X8X8X8X8X8X8X8X8X8X8X8X8X8X8X8X8X8X8X8X8X8X8X8X8X8X8X8X8X8X8X8X8X"
};
