/* XPM */
static char *right_v2[] = {
/* columns rows colors chars-per-pixel */
"42 42 15 1 ",
"  c black",
". c gray2",
"X c #222222",
"o c #483B3A",
"O c gray29",
"+ c #775C55",
"@ c #9C2031",
"# c #CD3139",
"$ c #627B83",
"% c #DE5A8B",
"& c #94A4AC",
"* c #BDCDCD",
"= c #C1D0D0",
"- c gray98",
"; c white",
/* pixels */
"XXXXXXXXXXXXXXXXXXXXXXXXXXXXXXXXXXXXXXXXXX",
"Xooooooooooo+++ooooo+++oo++++++++++++++++X",
"Xooooooooooo+++ooooo+++oo++++++++++++++++X",
"Xooooooooooo+++ooooo+++oo++++++++++++++++X",
"Xoooooooooooooooooooooooooooooooooooooo++X",
"XoooooooooooooooO        OOOooooooooooo++X",
"XoooooooooooOOO  $$&***&$    Oooooooooo++X",
"Xoooooooooo    &;;;;;;;;;;;;&   ooooooo++X",
"Xooooooooo $***;;;;;;;;;;;;;;*$$ oooooo++X",
"Xooooooooo $***;;;;;;;;;;;;;;*$$ oooooo++X",
"Xooooooooo $***;;;;;;;;;;;;;;*$$ oooooo++X",
"Xooooooo  $;;;;;;;;;;;;;;;;;;;;;$ ooooo++X",
"XooooooO  *;;;;;;;;;;;;;;;;;;;;;* Ooooo++X",
"Xoooooo &&;;;;;;;;;;;;;;;;;;&;**$&   OO++X",
"Xoooooo &&;;;;;;;;;;;;;;;;;;&;**$&   OO++X",
"XoooooO **;;;;;;;;;;;&&;;***$$OOO* OO  ooX",
"Xooooo $;;;;;;;;;;;;;**OO&&&**.-=;$OO  ooX",
"XooooO &**;;;;;;;;;;;;;* ***;;.;;;&  OO++X",
"XooooO &**;;;;;;;;;;;;;* ***;;.;;;&  OO++X",
"XooOO OO$$&*;;;;;;;;;;;; ;;;;;;;;*&  oo++X",
"Xoo  $O*;;;;;;;;;;;;***;;;;;;;**&$&  oo++X",
"Xoo  &&$;;;;;;;;;;;;$&&&&&&&&&&&*$&  oo++X",
"Xoo  &&$;;;;;;;;;;;;$&&&&&&&&&&&*$&  oo++X",
"Xoo  &&$;;;;;;;;;;;;$&&&&&&&&&&&*$&  ooooX",
"Xoo  $&&&&*;;;;;;;;;$**;$;;;$*@@;&&  ooooX",
"XooOO ******;;;;;;;;&@@;@@@@@@@@&& OOooooX",
"Xoooo $********;;;;;&##%%###@@@@&$ ooooooX",
"Xoooo $********;;;;;&##%%###@@@@&$ ooooooX",
"XooooO &*************@@#%%%%#@&&& Ooooo++X",
"XoooooO $$***********$$@@@@@@$$$ Oooooo++X",
"XooooooO  $&*********&&$$$$$$$@@@ ooooo++X",
"XooooooO  $&*********&&$$$$$$$@@@ oooooooX",
"XoooooooOO  $$$&*****$$@#@@@O@##@ oooooooX",
"XooooooooooO    $&&&&  #####@@##@ oooooooX",
"XooooooooooO    $&&&&  #####@@##@ oooooooX",
"XooooooooooooooO       ##@@@  @@ OoooooooX",
"Xoooooooooooooooooooo  @@   OO  OooooooooX",
"Xoooooooooooooooooooo  @@   OO  OooooooooX",
"Xoooooooooooooooooooooo  OOOoooooooooooooX",
"XooooooooooooooooooooooooooooooooooooooooX",
"XooooooooooooooooooooooooooooooooooooooooX",
"XXXXXXXXXXXXXXXXXXXXXXXXXXXXXXXXXXXXXXXXXX"
};
