/* XPM */
static char *right[] = {
/* columns rows colors chars-per-pixel */
"31 29 247 2 ",
"   c black",
".  c #131313",
"X  c #161616",
"o  c gray9",
"O  c #181818",
"+  c #191919",
"@  c #1B1B1B",
"#  c #191C1D",
"$  c #1D1D1D",
"%  c #1E1E1E",
"&  c gray12",
"*  c #26080C",
"=  c #330A10",
"-  c #350B10",
";  c #321C1F",
":  c #3B181C",
">  c #321F21",
",  c #321F22",
"<  c #1D2528",
"1  c #1E2528",
"2  c #1E2629",
"3  c gray13",
"4  c #222222",
"5  c gray14",
"6  c #252525",
"7  c #2A2A2A",
"8  c #292D2E",
"9  c #292D2F",
"0  c #2A2E2F",
"q  c #292F31",
"w  c #293033",
"e  c #2A3032",
"r  c #2A3134",
"t  c #2B3235",
"y  c #313131",
"u  c #323232",
"i  c #323435",
"p  c #323536",
"a  c #323537",
"s  c gray21",
"d  c #373737",
"f  c #32383B",
"g  c #35393B",
"h  c #36393B",
"j  c #30383C",
"k  c #333B3E",
"l  c gray22",
"z  c #450E15",
"x  c #57131A",
"c  c #68181C",
"v  c #6B1720",
"b  c #6D1721",
"n  c #751923",
"m  c #702B32",
"M  c #732834",
"N  c #333C40",
"B  c #353D40",
"V  c #374042",
"C  c #3B4549",
"Z  c #3F4649",
"A  c #3F474A",
"S  c #3F484A",
"D  c #414748",
"F  c #444749",
"G  c #40494B",
"H  c #494F51",
"J  c #455052",
"K  c #4A5153",
"L  c #485154",
"P  c #535858",
"I  c #51595B",
"U  c #5A5E5E",
"Y  c #6B4E56",
"T  c #6E4D55",
"R  c #4D5C60",
"E  c #565F61",
"W  c #775964",
"Q  c #755B67",
"!  c #536065",
"~  c #5B6363",
"^  c #566368",
"/  c #586568",
"(  c #586569",
")  c #5A676A",
"_  c #5E6B6E",
"`  c #616567",
"'  c #656969",
"]  c #676B6B",
"[  c #7D646F",
"{  c #626D72",
"}  c #626E72",
"|  c #6B6B74",
" . c #687173",
".. c #697173",
"X. c #6D7070",
"o. c #6A787C",
"O. c #6B787C",
"+. c #6C797D",
"@. c #76737D",
"#. c #767A7A",
"$. c #7B7F7F",
"%. c #8E2635",
"&. c #9C2031",
"*. c #9B2D38",
"=. c #A92433",
"-. c #AA2433",
";. c #AC2533",
":. c #B22734",
">. c #B62935",
",. c #BC2B36",
"<. c #C32D37",
"1. c #C42E37",
"2. c #CD3139",
"3. c #933F4B",
"4. c #B12D42",
"5. c #B12E43",
"6. c #A33441",
"7. c #BE364D",
"8. c #B43552",
"9. c #C13346",
"0. c #C7394F",
"q. c #91414D",
"w. c #964550",
"e. c #974651",
"r. c #994B59",
"t. c #A2404E",
"y. c #985662",
"u. c #A25E69",
"i. c #976874",
"p. c #A5616C",
"a. c #A66770",
"s. c #AE717A",
"d. c #D84D72",
"f. c #DA517A",
"g. c #D26378",
"h. c #7C7680",
"j. c #947C85",
"k. c #AF7C86",
"l. c #D66D8E",
"z. c #778488",
"x. c #7F8A8C",
"c. c #7D8B8F",
"v. c #7A8A90",
"b. c #7E929A",
"n. c #808B8D",
"m. c #958D96",
"M. c #849295",
"N. c #82959D",
"B. c #82979D",
"V. c #83969E",
"C. c #8E9698",
"Z. c #8F9799",
"A. c #9A9298",
"S. c #90989A",
"D. c #959B9D",
"F. c #929D9F",
"G. c gray61",
"H. c #A1858E",
"J. c #879BA1",
"K. c #8A9CA4",
"L. c #8B9CA4",
"P. c #BF9FA5",
"I. c #8FA1A7",
"U. c #91A4A9",
"Y. c #93A4AA",
"T. c #93A5AB",
"R. c #93A7AB",
"E. c #96A9AE",
"W. c #98ABAF",
"Q. c #9BAAB1",
"!. c #9CAEB2",
"~. c #9CB0B2",
"^. c #9DB0B2",
"/. c #9FB0B4",
"(. c #A0AAAB",
"). c #A1A9AC",
"_. c #A3AAAC",
"`. c #A1B0B6",
"'. c #A3B1B7",
"]. c #A2B2B6",
"[. c #A2B2B7",
"{. c #A5B4B9",
"}. c #A6B4BA",
"|. c #A7B4BB",
" X c #A7B6BA",
".X c #A8B8BC",
"XX c #ABB9BE",
"oX c #ACBCBF",
"OX c #B5BDBD",
"+X c #C1A7AD",
"@X c #D4B3B8",
"#X c #AEBEC1",
"$X c #AFBFC1",
"%X c #B1BEC1",
"&X c #B0BFC2",
"*X c #B2BFC3",
"=X c #B2BFC4",
"-X c #B3C0C4",
";X c #B3C3C5",
":X c #B6C1C6",
">X c #B9C1C1",
",X c #BBC6CA",
"<X c #BBC7CA",
"1X c #BFCACE",
"2X c #BDCDCD",
"3X c gray76",
"4X c #C6C6C6",
"5X c #C0CACD",
"6X c #C1CACF",
"7X c #C2CDCF",
"8X c #CACACA",
"9X c gray80",
"0X c #C2CED0",
"qX c #C3CED0",
"wX c #C4CDD1",
"eX c #C4CFD1",
"rX c #C6D1D3",
"tX c #C7D1D3",
"yX c #C7D3D4",
"uX c #CAD2D6",
"iX c #C8D5D5",
"pX c #CAD4D6",
"aX c #C8D6D6",
"sX c #CCD5D8",
"dX c #CDD6D8",
"fX c #CFD8DA",
"gX c #D2DBDD",
"hX c #D4DCDE",
"jX c #D8DFE1",
"kX c #D6E0E0",
"lX c #D9E2E2",
"zX c #DDE5E5",
"xX c #E0E5E7",
"cX c #E2E6E8",
"vX c #E1E8E8",
"bX c #E4E8EA",
"nX c #E9EEEE",
"mX c #EAEFEF",
"MX c #ECF0F0",
"NX c #EDF1F1",
"BX c #EEF2F2",
"VX c #EFF3F3",
"CX c #F0F3F3",
"ZX c #F1F4F4",
"AX c #F1F5F5",
"SX c white",
"DX c None",
/* pixels */
"DXDXDXDXDXDXDXDXDXDXDXDXDXDXDXDXDXDXDXDXDXDXDXDXDXDXDXDXDXDXDX",
"DXDXDXDXDXDXDXDXDXDXDXDXDXDXDXDXDXDXDXDXDXDXDXDXDXDXDXDXDXDXDX",
"DXDXDXDXDXDXDXDXDXDXDXDXDXDXDXDXDXDXDXDXDXDXDXDXDXDXDXDXDXDXDX",
"DXDXDXDXDXDXDXDXDXDXDXDXo e C I ~ I C e o DXDXDXDXDXDXDXDXDXDX",
"DXDXDXDXDXDXDXDXDXDXO g ` D.,XgXzXgX,XD.` g O DXDXDXDXDXDXDXDX",
"DXDXDXDXDXDXDXDXDX< J Z.cXSXSXSXSXSXSXSXxXS.J < DXDXDXDXDXDXDX",
"DXDXDXDXDXDXDXDX< +.rXNXSXSXSXSXSXSXSXSXSXNXrX+.< DXDXDXDXDXDX",
"DXDXDXDXDXDXDX% A 7XSXSXSXSXSXSXSXSXSXSXSXSXSX7XG % DXDXDXDXDX",
"DXDXDXDXDXDXDXg C.NXSXSXSXSXSXSXSXSXSXSXxXbXMX%Xo.g . 7 DXDXDX",
"DXDXDXDXDXDX% H fXSXSXSXSXSXSXSXcXcXSXMX XU.F...M.K o 5 DXDXDX",
"DXDXDXDXDXDXq n.NXSXSXSXSXSXSXSXhX_.G.(.!.R.E U >Xc.G 3 DXDXDX",
"DXDXDXDXDX3 B {.mXSXSXSXSXSXSXSXZXOXP ..yXvX] $.ZX:XL 5 DXDXDX",
"DXDXDXDXu 5 F z.'.dXmXSXSXSXSXSXSXCX| #.ZXSX3X9XmX%XD O DXDXDX",
"DXDXDXDXe G ' (.wXlXNXSXSXSXSXNXjXMX4X8XSXSXmXpX'.I.G DXDXDXDX",
"DXDXDXDXj v.c.,XSXSXSXSXSXSXSXqXE.=X0X0X6X6X=XXXN.b.D DXDXDXDX",
"DXDXDXDXj N.K.Q.pXmXSXSXSXSXSX%XJ.1X`.{.'.U.H.+XXXK.A DXDXDXDX",
"DXDXDXDX0 _ oXoX;XiXmXSXSXSXSX1Xj.@XP.p.p.y.t.k.|.} a DXDXDXDX",
"DXDXDXDX@ V ^.2X2X2XiXmXSXSXSXpXp.g.l.7.=.&.&.i.N.k O DXDXDXDX",
"DXDXDXDXDX0 ) #X2X2X2XiXkXkXkX7Xs.9.d.f.0.=.r.m./ 0 DXDXDXDXDX",
"DXDXDXDXDXs i ) !.2X2X2X2X2X2X2XA.q.5.8.4.q.@.! p d DXDXDXDXDX",
"DXDXDXDXDXDXs q R U.#X2X2X2X2X2X~.@.Q Q W | Q M : DXDXDXDXDXDX",
"DXDXDXDXDXDXDXd 0 t ) U.-X2X2X2XE.i.q.e.Y T *.=.z DXDXDXDXDXDX",
"DXDXDXDXDXDXDXDXDX3 q e / U.'.'.} m 1.<.*.%.,.>.z DXDXDXDXDXDX",
"DXDXDXDXDXDXDXDXDXDXDX3 8 w f f # c 2.,.b - n v , DXDXDXDXDXDX",
"DXDXDXDXDXDXDXDXDXDXDXDXDXDXDXDX  x ;.b , u ; , d DXDXDXDXDXDX",
"DXDXDXDXDXDXDXDXDXDXDXDXDXDXDXDXDX* = , l DXDXDXDXDXDXDXDXDXDX",
"DXDXDXDXDXDXDXDXDXDXDXDXDXDXDXDXDXDXDXDXDXDXDXDXDXDXDXDXDXDXDX",
"DXDXDXDXDXDXDXDXDXDXDXDXDXDXDXDXDXDXDXDXDXDXDXDXDXDXDXDXDXDXDX",
"DXDXDXDXDXDXDXDXDXDXDXDXDXDXDXDXDXDXDXDXDXDXDXDXDXDXDXDXDXDXDX"
};
