/* XPM */
static char *closed[] = {
/* columns rows colors chars-per-pixel */
"42 42 100 2 ",
"   c #010101",
".  c gray1",
"X  c #060303",
"o  c #040405",
"O  c #060606",
"+  c #0B0505",
"@  c #0B0606",
"#  c #0C0606",
"$  c #0D0707",
"%  c #080708",
"&  c #0C0708",
"*  c gray3",
"=  c #090809",
"-  c #100808",
";  c #150F0F",
":  c #120F12",
">  c #140E10",
",  c #121313",
"<  c #131314",
"1  c #131414",
"2  c #191315",
"3  c #1A1415",
"4  c #161418",
"5  c #19171A",
"6  c #1B181C",
"7  c #1B191C",
"8  c #1C1A1E",
"9  c #221716",
"0  c #231618",
"q  c #251618",
"w  c #221A1A",
"e  c #211F24",
"r  c #222222",
"t  c #252227",
"y  c #262327",
"u  c #252427",
"i  c #292121",
"p  c #2B2323",
"a  c #2F2222",
"s  c #2E2322",
"d  c #2F2322",
"f  c #2B2427",
"g  c #29262B",
"h  c #2C2528",
"j  c #2D2729",
"k  c #29282B",
"l  c #2E2828",
"z  c #2E2929",
"x  c #2B292C",
"c  c #2C2B2D",
"v  c #312024",
"b  c #332125",
"n  c #342226",
"m  c #302424",
"M  c #362428",
"N  c #302B2B",
"B  c #3B2E2D",
"V  c #3C2F2E",
"C  c #3C2F2F",
"Z  c #2D2B32",
"A  c #2F2C32",
"S  c #302E32",
"D  c #302F33",
"F  c #303033",
"G  c #313033",
"H  c #323134",
"J  c #333235",
"K  c #343437",
"L  c #3A3737",
"P  c #3D3737",
"I  c #343538",
"U  c #37363B",
"Y  c #3F3939",
"T  c #383A3C",
"R  c #393A3D",
"E  c #463330",
"W  c #403A3A",
"Q  c #433E3E",
"!  c #483B3A",
"~  c #3E3E43",
"^  c #3E3E44",
"/  c #523A42",
"(  c gray28",
")  c #454349",
"_  c #47464B",
"`  c #49484D",
"'  c #4B4B50",
"]  c #4D4E51",
"[  c #4E4F52",
"{  c #4F5254",
"}  c #545151",
"|  c #575454",
" . c #525258",
".. c #59585E",
"X. c #775C55",
"o. c #5F5D64",
"O. c #625E67",
"+. c #66636B",
"@. c #67676D",
"#. c gray42",
/* pixels */
"r r r r r r r r r r r r r r r r r r r r r r r r r r r r r r r r r r r r r r r r r r ",
"r ! ! ! ! ! ! ! ! ! ! ! X.X.X.! ! ! ! ! X.X.X.! ! X.X.X.X.X.X.X.X.X.X.X.X.X.X.X.X.r ",
"r ! ! ! ! ! ! ! ! ! ! ! X.X.X.! ! ! ! ! X.X.X.! ! X.X.X.X.X.X.X.X.X.X.X.X.X.X.X.X.r ",
"r ! ! ! ! ! ! ! ! ! ! ! X.X.X.! ! ! ! ! X.X.X.! ! X.X.X.X.X.X.X.X.X.X.X.X.X.X.X.X.r ",
"r ! ! ! ! ! ! ! ! ! ! ! ! ! ! ! ! ! ! ! ! ! ! ! ! ! ! ! ! ! ! ! ! ! ! ! ! ! ! X.X.r ",
"r ! ! ! ! ! ! ! ! ! ! ! ! ! ! ! ! ! ! ! ! ! ! ! ! ! ! ! ! ! ! ! ! ! ! ! ! ! ! X.X.r ",
"r ! ! ! ! ! ! ! ! ! ! ! ! ! ! ! ! ! ! ! ! ! ! ! ! ! ! ! ! ! ! ! ! ! ! ! ! ! ! X.X.r ",
"r ! ! ! ! ! ! ! ! ! ! ! ! ! ! ! ! ! ! ! ! ! ! ! ! ! ! ! ! ! ! ! ! ! ! ! ! ! ! X.X.r ",
"r ! ! ! ! ! ! ! ! ! ! ! ! ! ! ! ! ! ! ! ! ! ! ! ! ! ! ! ! ! ! ! ! ! ! ! ! ! ! X.X.r ",
"r ! ! ! ! ! ! ! ! V m m m m m m m m m d m m m m m m m m m m m m V ! ! ! ! ! ! X.X.r ",
"r ! ! ! ! ! ! ! ! d 9 P @ 6 f l j f l @ j P @ r N j N j l @ j e d ! ! ! ! ! ! X.X.r ",
"r ! ! ! ! ! ! ! ! d j #.  A #.#.#.#.#.  ) #.  _ #.#.#.#...  ( ! d ! ! ! ! ! ! X.X.r ",
"r ! ! ! V m m m d 9 l #.  : 5 5 5 5 5   ) #.  4 6 6 6 6 5   ( Y 9 m m m m C ! X.X.r ",
"r ! ! ! d - @ @ @ @ L #.                ( #.                ( } @ @ @ + - s ! X.X.r ",
"r ! ! ! d @         ( #.                ( #.                ( #.        # s ! X.X.r ",
"r ! V m 9 @         ( #.                ( #.                ( #.        # 9 m C ! r ",
"r ! m r P .         ( #.                ( #.                ( #.        X > p s ! r ",
"r ! v W #.          ( #.                ( #.                ( #.            W E X.r ",
"r ! m W #.          ( #.                ( #.                ( #.          o W E X.r ",
"r ! m W #.u A G A   ( @.. r J J J G J   ( #.  S I I K K J   ( #.  T R T R 1 W E X.r ",
"r ! d W #.K #.#.#.  _ #.  A #.#.#.#.#.  ( #.  ^ #.#.#.#.]   _ #.  } #.#.@., W E X.r ",
"r ! d W #.8 t t k   ( #.. 6 x x c c c   ( #.  u k S G G S   ( #.  G F J K 1 W E X.r ",
"e ! d W #.o o * *   ( #.  o = = % = =   ( #.  % = = * * %   ( #.  = = = . 1 W E X.r ",
"r ! m W #.          ( #.                ( #.                ( #.          , P d ! r ",
"r ! m W #.          ( #.                ( #.                ( #.          < P m ! r ",
"r ! m m W X         ( #.                ( #.                ( #.        X > f v ! r ",
"r ! V n q #         ( #.                ( #.                ( #.        # 0 b V ! r ",
"r ! ! ! n #         ( #.                ( #.                ( #.        @ m / ! ! r ",
"r ! ! / n - # - # # L #.    o o     .   ( #.  o   .         ( | # @ @ + # b / X.X.r ",
"r ! ! ! V n M M M q l #.  A _ _ ` ` `   ( #.  ~ ] { ] { '   ( Y 0 b m b n B ! X.X.r ",
"r ! ! ! ! / / / / n l #.  I O.#.@.o.+.  _ #.   .#.#.#.#.@.  ( Y b / / / / ! ! X.X.r ",
"r ! ! ! ! / / / / n w Q # > 3 3 3 3 3 @ N Q # 3 3 3 3 3 3 # c p n / / / / ! ! ! ! r ",
"r ! ! ! ! ! ! ! ! V n m v v v v v v v v v v v v v v v v v v v v V ! ! ! ! ! ! ! ! e ",
"r ! ! ! ! ! ! ! ! ! / / / / / / / / / / / / / / / / / / / / / / ! ! ! ! ! ! ! ! ! r ",
"r ! ! ! ! ! ! ! ! ! ! ! ! ! ! ! ! ! ! ! ! ! ! ! ! ! ! ! ! ! ! ! ! ! ! ! ! ! ! ! ! r ",
"r ! ! ! ! ! ! ! ! ! ! ! ! ! ! ! ! ! ! ! ! ! ! ! ! ! ! ! ! ! ! ! ! ! ! ! ! ! ! ! ! r ",
"r ! ! ! ! ! ! ! ! ! ! ! ! ! ! ! ! ! ! ! ! ! ! ! ! ! ! ! ! ! ! ! ! ! ! ! ! ! ! ! ! r ",
"r ! ! ! ! ! ! ! ! ! ! ! ! ! ! ! ! ! ! ! ! ! ! ! ! ! ! ! ! ! ! ! ! ! ! ! ! ! ! ! ! r ",
"r ! ! ! ! ! ! ! ! ! ! ! ! ! ! ! ! ! ! ! ! ! ! ! ! ! ! ! ! ! ! ! ! ! ! ! ! ! ! ! ! r ",
"r ! ! ! ! ! ! ! ! ! ! ! ! ! ! ! ! ! ! ! ! ! ! ! ! ! ! ! ! ! ! ! ! ! ! ! ! ! ! ! ! r ",
"r ! ! ! ! ! ! ! ! ! ! ! ! ! ! ! ! ! ! ! ! ! ! ! ! ! ! ! ! ! ! ! ! ! ! ! ! ! ! ! ! r ",
"r r r r r r r r r r r r r r r r r r r r r r r r r r r r r r r r r r r r r r r r r r "
};
