/* XPM */
static char *exit_original[] = {
/* columns rows colors chars-per-pixel */
"42 42 44 1 ",
"  c #010101",
". c #080708",
"X c #09090A",
"o c #0F0F11",
"O c #120F12",
"+ c #131314",
"@ c #161418",
"# c #19171A",
"$ c #1B1A1D",
"% c #1D1D20",
"& c #201F22",
"* c #1F2023",
"= c #222125",
"- c #252428",
"; c #29262B",
": c #2B2B2D",
"> c #2E2C31",
", c #302F33",
"< c #323235",
"1 c #363439",
"2 c #39373C",
"3 c #3A393D",
"4 c #3E3C42",
"5 c #413E45",
"6 c #424246",
"7 c #46444A",
"8 c #48474C",
"9 c #4A4A4E",
"0 c #4D4E51",
"q c #524D57",
"w c #4F5054",
"e c #515256",
"r c #545658",
"t c #5A575E",
"y c #59595D",
"u c #5C5762",
"i c #5D5C62",
"p c #625E67",
"a c #5F6065",
"s c #616365",
"d c #65656A",
"f c #6D6D73",
"g c #6F7176",
"h c #74767A",
/* pixels */
"=454555547777777988909900000000000ww000w0*",
"2455567787889009000ww00w00e00eweeeweeeere6",
"2555577778889000000w0wwwwweeeeeeeeeeereer6",
"3556767888079090000wwwwweeweweweeerrrerrr6",
"45575%#%%%#%%##%$%$%%%%%=f-=%&>====**wrrr6",
"45557%#%%#ooo%%%%%%@+o+&%=%=-oooo-*-*:rrr6",
"25575%%##+44o%%%%$%.57 %%%%%% 78 *****rrr6",
"45757     44+       67        70     %rrr6",
"4677>     44O       67        70     %rrr6",
"25761     45+       67        70     %rrr6",
"47577.XX..45O.XX... 69 .X.... 90 XXXX%rrr6",
"457751554#45@>75777X79 490008 90 weee%rrr6",
"45777>550%45@>r7rtqX69 8iiiiy 8w adds$rrr6",
"47777O@##X55@O#####.69 @#$$## 90 %$$%$rrr6",
"46774     55+       78        90    X$rrr6",
"46787     45+       69        9w   .XXrrr6",
"47777     55@       69        90     +rrr=",
"47887     55+       79        9e     +rrr<",
"47877     55+       70        9e      rrr6",
"58788     45+       79        90     .rrr6",
"47077-,,>+45+&<<<,<.79 :<1<1< 9e 3333+rrr6",
"679771554%56@>78888X79 4w0w00 9e erer+rrr6",
"48707%-&:O55@#::::>.89 -;,<,> 9e <<<<+rrr6",
"68877.....55+.....X 70 .XXX.. 9e XXX +rrr6",
"40899     55@       79        9e     +rrr6",
"57898     55+       89        9e     +rrr6",
"69999     56O       70        9e     +rrr6",
"69998     55+       79        9e     +rrr6",
"69909     55+       80        9e    X+rrr6",
"69999  .  47+  .    79   .    9e . XX+rrr6",
"699901557$55+>77999X70 400ww9 8e eere+rrr6",
"699091qqu=56@1putpdX79 effffd 8e.gh:g+rrr6",
"69909+#$$X55++$%$$$.69 #%%%%$ 9w $&$*+rrr6",
"79999     56@       89        9w     +rrr6",
"799q0     45@       89        8w     +rrr6",
"60999     66+       69        9w     +rrr6",
"60900     56+       79        9w     +rrr6",
"69909                                *rrr6",
"6909w00w000w0wqwwwewwwweeeeeeeeeeeerrrrrr6",
"6090090000w0wwwwwwweweewqeeeeeeeerrererrrr",
"699090900w00wwwwew0eeeweeeeeeeeeerrrrrrrsr",
".+o+@++++++++++++++++++++++++++++++++++:3o"
};
