/* XPM */
static char *exit_gray[] = {
/* columns rows colors chars-per-pixel */
"42 42 77 1 ",
"  c #020202",
". c gray1",
"X c #060506",
"o c #070707",
"O c #080708",
"+ c gray3",
"@ c #09080A",
"# c gray4",
"$ c gray5",
"% c #0F0F11",
"& c #120F12",
"* c #121113",
"= c #121313",
"- c #131214",
"; c #141115",
": c #131414",
"> c #161418",
", c #181619",
"< c #1A171B",
"1 c #1B191B",
"2 c #1B191C",
"3 c #1A191D",
"4 c #1A1B1C",
"5 c #1E1D1E",
"6 c #1D1E1F",
"7 c #1F1E20",
"8 c #211F24",
"9 c #232226",
"0 c #252226",
"q c #252227",
"w c #262327",
"e c #242426",
"r c #29282B",
"t c #2B2B2C",
"y c #2C2B2F",
"u c #2D2C2F",
"i c #2C2A31",
"p c #2F2D32",
"a c #302F33",
"s c #303033",
"d c #313134",
"f c #343537",
"g c #353238",
"h c #37363B",
"j c #39373C",
"k c #383839",
"l c #3A383D",
"z c #383A3C",
"x c #3C3A3F",
"c c #3C3A40",
"v c #3E3D42",
"b c #3E3E44",
"n c #403E44",
"m c #414044",
"M c #424046",
"N c gray28",
"B c #454349",
"V c #46444A",
"C c #48474C",
"Z c #48484D",
"A c #49494D",
"S c #4F4A53",
"D c #4C4C50",
"F c #4F5254",
"G c #525355",
"H c #525457",
"J c #525258",
"K c #58595B",
"L c #59585E",
"P c #5C5762",
"I c #5F5D64",
"U c #625E67",
"Y c #616365",
"T c #66636B",
"R c #67676D",
"E c gray42",
"W c #6F7176",
/* pixels */
"9NNNNNNNNNNNNNNNNNNNNNNNNNNNNNNNNNNNNNNNNe",
"jnEEEEEEEEEEEEEEEEEEEEEEEEEEEEEEEEEEEEEEEN",
"jEEEEEEEEEEEEEEEEEEEEEEEEEEEEEEEEEEEEEEEEN",
"lEEEEEEEEEEEEEEEEEEEEEEEEEEEEEEEEEEEEEEEEN",
"jEEEE31332211313311313311313313113131EEEEN",
"jEEEE3213>*&&111133;***331111**@%1313pEEEN",
"xEEEE333> NE 1<3311 nE <12<31 BE 11315EEEN",
"xEEEE     NE        ME        VE    .4EEEN",
"xEEEE     NE        ME        VE     3EEEN",
"xEEEE     NE        ME        VE     4EEEN",
"xEEEEO@@X NE X@@X++ VE XXO@@O VE.+@@@4EEEN",
"cEEEEgvvv NE iBBVVV VE vAADDA AE.FGGG5EEEN",
"cEEEEyEES NE aEEEEE BE VEEEEL NE.IEEE4EEEN",
"vEEEE;>;> NE &<;><> ME ;3>1<3 NE.>1335EEEN",
"cEEEE     NE      . NE        NE     4EEEN",
"vEEEE     NE        NE        NE     $EEEN",
"xEEEE     NE        NE        NE     *EEEN",
"vEEEE     NE        NE        NE     =EEEN",
"vEEEE     NE        NE        NE      EEEN",
"vEEEE     NE   .    NE        NE     XEEEN",
"vEEEE0apt NE 8sssss NE tffffd VE kzzk=EEEN",
"nEEEEgEEE NE iEEEEE NE vEEEEA NE FEEE=EEEN",
"nEEEE300w NE 1ryytu NE 0rpssu NE sddd:EEEN",
"nEEEEXX+@ NE X+XX@@ NE X@@+@+ NE @@+X:EEEN",
"nEEEE     NE        NE        NE     *EEEN",
"nEEEE     NE        NE        NE     *EEEN",
"MEEEE     NE        NE        NE     *EEEN",
"NEEEE     NE        NE        NE     *EEEN",
"NEEEE     NE        NE        NE     =EEEN",
"NEEEE X   NE   X    NE   .    NE .  X*EEEN",
"NEEEEgvnb NE iVVCVA NE vDFDDA NE.FHGG=EEEN",
"NEEEEhEEP NE hUEEIT NE JEEEER NE.WEEE*EEEN",
"NEEEE&<11 NE &11331 NE >55553 NE 3775:EEEN",
"NEEEE     NE        NE        NE     =EEEN",
"NEEEE     NE        NE        NE     *EEEN",
"NEEEE     NE        NE        NE     *EEEN",
"NEEEE     NE        NE        NE     *EEEN",
"NEEEE                                7EEEN",
"NEEEEEEEEEEEEEEEEEEEEEEEEEEEEEEEEEEEEEEEEN",
"NEEEEEEEEEEEEEEEEEEEEEEEEEEEEEEEEEEEEEEEEG",
"NEEEEEEEEEEEEEEEEEEEEEEEEEEEEEEEEEEEEEEEYK",
"X;ONNNNNNNNNNNNNNNNNNNNNNNNNNNNNNNNNNNNtk$"
};
