/* XPM */
static char *floor_ladder[] = {
/* columns rows colors chars-per-pixel */
"42 42 8 1 ",
"  c #1C1117",
". c #35271F",
"X c #301D27",
"o c #222222",
"O c #483B3A",
"+ c #664729",
"@ c #523A42",
"# c #775C55",
/* pixels */
"oooooooooooooooooooooooooooooooooooooooooo",
"oOOOOOOOOOOO###OOOOO###OO################o",
"oOOOOOOOOOOO###OOOOO###OO################o",
"oOOOOOOOOOOO###OOOOO###OO################o",
"oOOOOOOOOOOOOOOOOOOOOOOOOOOOOOOOOOOOOOO##o",
"oOOOOOOOOOOOOOOOOOOOOOOOOOOOOOOOOOOOOOO##o",
"oOOOOOOOOOOOOOOOOOOOOOOOOOOOOOOOOOOOOOO##o",
"oOOOOOOOOOOOOOOOOOOOOOOOOOOOOOOOOOOOOOO##o",
"oOOOOOOOOOOOOOOOOOOOOOOOOOOOOOOOOOOOOOO##o",
"oOOOOOOOOOOOOOOOOOOOOOOOOOOOOOOOOOOOOOO##o",
"oOOOOOOOOO+++XXXXXXXXXXXXXXXX+++OOOOOOO##o",
"oOOOOOOOOO+++XXXXXXXXXXXXXXXX+++OOOOOOO##o",
"oOOOOOOOOO+++XXXXXXXXXXXXXXXX+++OOOOOOO##o",
"oOOOOXXXXX+++   ++++++++++XXX+++XXXXXOO##o",
"oOOOOXXXXX+++   ++++++++++XXX+++XXXXXOO##o",
"oOOOOXXXXX+++   ++++++++++XXX+++XXXXXOOOOo",
"oOOXXXXX  +++                +++XX   XXOOo",
"oOOXXXXX  +++                +++XX   XX##o",
"oOO  XXX  +++   ++++++++++   +++XX     ##o",
"oOO  XXX  +++   ++++++++++   +++XX     ##o",
"oOO  XXX  +++   ++++++++++   +++XX     ##o",
"oOO       ...                ...XX     ##o",
"oOO       ...                ...XX     ##o",
"oOO       ...                ...XX     OOo",
"oOO       ...   ..........   ...       OOo",
"oOO       ...   ..........   ...       OOo",
"oOO@@     XXX                XXX     @@OOo",
"oOO@@     XXX                XXX     @@OOo",
"oOO@@     XXX                XXX     @@##o",
"oOOOO@@@@@XXX   XXXXXXXXXX   XXX@@@@@OO##o",
"oOOOO@@@@@XXX   XXXXXXXXXX   XXX@@@@@OO##o",
"oOOOO@@@@@XXX   XXXXXXXXXX   XXX@@@@@OOOOo",
"oOOOOOOOOO@@@@@@@@@@@@@@@@@@@@@@OOOOOOOOOo",
"oOOOOOOOOO@@@@@@@@@@@@@@@@@@@@@@OOOOOOOOOo",
"oOOOOOOOOOOOOOOOOOOOOOOOOOOOOOOOOOOOOOOOOo",
"oOOOOOOOOOOOOOOOOOOOOOOOOOOOOOOOOOOOOOOOOo",
"oOOOOOOOOOOOOOOOOOOOOOOOOOOOOOOOOOOOOOOOOo",
"oOOOOOOOOOOOOOOOOOOOOOOOOOOOOOOOOOOOOOOOOo",
"oOOOOOOOOOOOOOOOOOOOOOOOOOOOOOOOOOOOOOOOOo",
"oOOOOOOOOOOOOOOOOOOOOOOOOOOOOOOOOOOOOOOOOo",
"oOOOOOOOOOOOOOOOOOOOOOOOOOOOOOOOOOOOOOOOOo",
"oooooooooooooooooooooooooooooooooooooooooo"
};
