/* XPM */
static char *bluetorch[] = {
/* columns rows colors chars-per-pixel */
"36 36 107 2 ",
"   c #1E2636",
".  c #1F2939",
"X  c #202738",
"o  c #232B3C",
"O  c #39333D",
"+  c #48392D",
"@  c #443A35",
"#  c #4B3C30",
"$  c #473D3C",
"%  c #3C433D",
"&  c #574436",
"*  c #594537",
"=  c #5B4739",
"-  c #5C4838",
";  c #614D3D",
":  c #7E523E",
">  c #272E40",
",  c #282F41",
"<  c #2C3345",
"1  c #2F3548",
"2  c #313747",
"3  c #383444",
"4  c #313649",
"5  c #343A4D",
"6  c #3C3D4D",
"7  c #373D50",
"8  c #393E52",
"9  c #463B4B",
"0  c #483E4C",
"q  c #294753",
"w  c #354253",
"e  c #3C4255",
"r  c #3F4458",
"t  c #3F4C5E",
"y  c #306675",
"u  c #52574E",
"i  c #414256",
"p  c #4A4252",
"a  c #42465A",
"s  c #45495D",
"d  c #494A5E",
"f  c #5D5F54",
"g  c #6A5443",
"h  c #755A45",
"j  c #755E4C",
"k  c #6C6254",
"l  c #706455",
"z  c #7E6552",
"x  c #464B60",
"c  c #4A4D63",
"v  c #4E5265",
"b  c #4F5268",
"n  c #515267",
"m  c #52536A",
"M  c #565670",
"N  c #5B5A73",
"B  c #476374",
"V  c #47687A",
"C  c #526B7B",
"Z  c #885A42",
"A  c #8D5F4A",
"S  c #83654F",
"D  c #8E6649",
"F  c #8F684A",
"G  c #936A4C",
"H  c #836A56",
"J  c #8B6B53",
"K  c #866C58",
"L  c #487283",
"P  c #4B798A",
"I  c #537181",
"U  c #597689",
"Y  c #557889",
"T  c #6A6681",
"R  c #428799",
"E  c #4D90A1",
"W  c #5097A7",
"Q  c #5A98A9",
"!  c #4CA3B4",
"~  c #5FA5B7",
"^  c #53ABBA",
"/  c #5BA9BB",
"(  c #4EB1C2",
")  c #55B6C7",
"_  c #61B5C7",
"`  c #5EC5D7",
"'  c #5FC8DA",
"]  c #64C0D2",
"[  c #63CBDD",
"{  c #6CCCDD",
"}  c #65CFE1",
"|  c #68CFE1",
" . c #6BD4E6",
".. c #6BD6E8",
"X. c #72D1E0",
"o. c #72D7E8",
"O. c #77D8E8",
"+. c #7DD9E8",
"@. c #8BD6E2",
"#. c #83D9E8",
"$. c #8BDBE8",
"%. c #95D7E1",
"&. c #9ADDE7",
"*. c #90DCE8",
"=. c #AFE0E7",
"-. c #B5E1E7",
";. c #BBE2E7",
/* pixels */
"c e e > 5 s i 5 o m c s r s 7 x a   c 8 r > w s i 5 > m c s i x 6 x a   ",
"r < > o < 5 8 < o 5 s s e 7 , , > 1 r 1 > . o 8 8 < X 5 a s e 7 o < o 1 ",
"o a s 5 5 , > o 8 7 < > 5 7 i 1 s 8 q i d 5 5 o o o 8 7 , o 5 7 e 1 a 8 ",
"N c a d a 8 < 4 c s o m x 7 8 8 i 5 U c a d a e 4 4 c s , n c 7 e 8 a 4 ",
"c e v a c a 4 X a c e o < 5 o o < P ] e c r c r 4 o a c 8 , < 5 o o < 5 ",
"e 7 a o o   o o 8 e e 4 o   d m i [ $.^ V > o   o o 8 e 8 7 X X s n e 1 ",
"7 4 1 e 7 5 5 o a r b s o 8 8 e i C ..' / e 7 5 5 o a r n s o 8 8 e r o ",
"o 5 s r < o o   8 c e 8 X m 5 8 8 9 ( #.R a < o o   8 x i 5 X M 5 8 8 5 ",
"r > o o 7 1 x x < e x 8 4 < 4 8 a p | y 6 o 7 4 a x < e d e 4 < 1 e s c ",
"s > 2 N x r b a 7 < a 5 5 2 2 i L { d 9 9 N s a n s 5 < r 5 w < 1 r a s ",
"o X C n 8 x r 7 1 o > 4 4 W %.O.o.v 9 9 0 n 8 x a 5 1 . o 4 1 X o 5 8 < ",
"T 8 5 3 e x x e 8 o x m ~ ..;.$.` 9 9 9 9 4 w x c e e o s M v d s > . x ",
"i   b , 1 < 1 1 o < c e X...$...( 9 9 9 p , 1 < 2 < . 1 v 7 r e 7 5 r w ",
"  N x r x 1 . > X x 8 i { $..... .! 9 9 p r r 5 o o o c 8 e a 4 < o . . ",
"8 b 8 8 r 7 t 7 x 5 2 i e ........} P 9 9 w r 7 a e c 5 2 i 8 < o   b 7 ",
", e 8 7 < 1 8 7 o o > < < E [ ..$.} [ / B 5 1 1 7 5 o o o 1 1 o o x 8 7 ",
". > > X 4 7 4 > o c 4 x 7 3 Y o.-.[ ..../ o 4 e 1 > X c 4 c 7 o c e r e ",
"0 x a 4 x b c i 4 > < < > e Y ..) ......_ 2 s v c e 5 , < , o o 4 7 e < ",
"c 8 8 , 5 s i 5 o m c s e @...O.=.+.*.=...r 6 a e 7 o m c x i x 4 x a   ",
"r 1 , X , 6 8 < o 5 a d 8 ` +.;.-.-.=.;...w o e 8 < o 5 a a r 7 < < o 1 ",
"> a x 5 5 , o o 8 7 < > 5 I ..&.&.=.;.=...t 5 o , X 8 7 < > 5 5 e 1 a 6 ",
"M c a x r e 4 4 c s > n d 9 C ..&.=.=.../ t r e 1 4 c a > n c 7 8 8 a 5 ",
"c 8 c r s a 5 o a x 7 o 3 9 9 C ......Q c i d i 5   s c 7 o , 7 o o < 4 ",
"8 7 t > o   o o 8 r e 6 u % u f k l l k u u %   X > 8 i 8 7 o   c n e 1 ",
"8 5 1 8 7 7 5 o r r v a D : A Z Z Z Z Z Z A : 7 7 X a r b s o 8 7 e r o ",
"o 7 x a < o     e d r 6 & - ; g h S J J J g & o X   8 x r 8   m 5 8 e 5 ",
"r , X o 7 4 s x < e a i & ; g g F G G G D g & 4 x c , 8 s e 4 1 1 e s c ",
"t , 1 N s a n s 5 2 a 5 @ & & g H K K z g g @ r n a 7 1 a 5 5 < 1 a a s ",
". . N b 8 s a 5 4 o o 4 4 + & & & & & & & & w x a 4 1 o o 5 4 o . 5 e > ",
"T e 7 1 e x c e 8 o s M v s + g g g g ; O < w x d r 8 o s M v s s > . x ",
"r   v , 1 < 1 1 . < c 8 i e + g H G J j & > 4 < 4 1 o < c 8 r 8 7 5 e e ",
"  N x r s 4 o o o c 8 e i 5 + = = - - * $ r t 4 o o X c 8 e a 5 < o o . ",
"8 b e e 8 8 x 8 x 5 1 r 8 < , # # # # 9 6 e e 8 s w d 5 4 i 8 < o   b 5 ",
", e 7 7 < 4 8 5 X o > < < , > 0 3 6 3 9 w 5 1 1 7 5 o o , 1 < , o c 8 7 ",
". > o o 4 8 1 , X c 1 x 7 > x 8 r r . > o o 4 8 4 ,   c 4 x 7 o x e r e ",
"8 x a < x b c a 5 > 1 , X > 4 8 r < 0 x i 1 s n x e 5 > < , > o 1 7 r < "
};
