/* XPM */
static char *gray[] = {
/* columns rows colors chars-per-pixel */
"24 24 7 1 ",
"  c #2A3346",
". c #3B485C",
"X c #4E5763",
"o c #646D6E",
"O c #6B7577",
"+ c #7E7C7A",
"@ c None",
/* pixels */
"@@                    @@",
"@@                    @@",
"  OO++++OOOOOO..OO++OO  ",
"  OO++++OOOOOO..OO++OO  ",
"  ooooOOoo++++..oooooo  ",
"  ooooOOoo++++..oooooo  ",
"  XXooooXXoooo..XXXXoo  ",
"  XXooooXXoooo..XXXXoo  ",
"  ....................  ",
"  ....................  ",
"  ++OO..OO++OO++++..oo  ",
"  ++OO..OO++OO++++..oo  ",
"  oo++..XXooOOooOO..XX  ",
"  oo++..XXooOOooOO..XX  ",
"  XXOO..ooooXXXXOO..XX  ",
"  XXOO..ooooXXXXOO..XX  ",
"  ....................  ",
"  ....................  ",
"  ++OO++OO++..OO++++OO  ",
"  ++OO++OO++..OO++++OO  ",
"  ooXXooXXoo..ooXXooXX  ",
"  ooXXooXXoo..ooXXooXX  ",
"@@                    @@",
"@@                    @@"
};
