/* XPM */
static char *redcarpet[] = {
/* columns rows colors chars-per-pixel */
"36 36 55 1 ",
"  c #630707",
". c #670707",
"X c #680707",
"o c #6E0707",
"O c #6F0707",
"+ c #620807",
"@ c #660807",
"# c #680807",
"$ c #630708",
"% c #650708",
"& c #6B0608",
"* c #6E0708",
"= c #6F0708",
"- c #630808",
"; c #660808",
": c #690808",
"> c #700707",
", c #730607",
"< c #760507",
"1 c #750707",
"2 c #760707",
"3 c #780507",
"4 c #790606",
"5 c #7B0606",
"6 c #7F0505",
"7 c #7E0507",
"8 c #7E0606",
"9 c #700608",
"0 c #700708",
"q c #740708",
"w c #760608",
"e c #7B0608",
"r c #7D0608",
"t c #7E0708",
"y c #830505",
"u c #820406",
"i c #810607",
"p c #830607",
"a c #840406",
"s c #850407",
"d c #860606",
"f c #860607",
"g c #890405",
"h c #880505",
"j c #8A0405",
"k c #880407",
"l c #8A0406",
"z c #8C0406",
"x c #8D0506",
"c c #8E0507",
"v c #810608",
"b c #830608",
"n c #860608",
"m c #890508",
"M c #900506",
/* pixels */
"ss*i5lx5tosssi>i1lx57>ssslo77sx5i*is",
"io7;s11i@t>ii>7&771i;v>is@t;s717@vos",
"1s;s07iXl;v51iXl>7iox:s02i.loisol;s1",
"7.l;n>ol-x;57Xl s00u;MX75#x+sooi-l&7",
"@s@l:75$l-so=s;l%77.u%sw&i l#5i;l-v*",
"iol.i1wn@lots@s@i11s%lX7i:l@s15n%s*7",
"7iXi>iio7@v42i@7*vi>i.i517.7>it*7&v5",
"s771ssss=b4ll47oulil>i7lx17>ssss>i0x",
"s5oo7ss5>>ussi2o7si2>>7su7>>7ss51w5s",
"sso77ll17>ssssoi5gx7ioslsi>75ll1t>is",
"7o7@771i@sosi>i@712i@7Xiioi.i557@io7",
"2s:so7u*l@s5ql+foii#l@s>1s.losiol+i5",
"7#l-s>oi+s@t7@l@so>s%l%7t%l$s*1i+l;7",
"ol@s@57.l@so>s@s.57Xl s>>n%l%t5&l vo",
"i0s;i11s@sosios@i11s.lo7ios.n5ws loi",
"2i@7osiot@i42i#5177o7*7e5i.7*7io7.71",
"l55oilis177llw7osigl*u5ll57ogyli>71s",
"s7>1isl1o>5il1o>7is71>esl5o>7si5>17i",
"ss>i7gl57ossss>i1lz57>sssso76gx5ioss",
"i>7Xs17i@7>si*v;755iXi>7vo7.s51iXios",
"ws%s*ii:l@s51i.louiXM*vwwi@mous@l%s1",
"7%z%so*s+l;77;l-uo0u%z&57:x$i>>s%m:7",
":l%l;75@l-so#l-l.76.l$n1&7-l&57.l%i>",
"7*l;vwwi;lo7sos%i1ol%l*7iol-nw5s%s*7",
"5i#i>7ioi#i5oi%i1ii>s.i1>7.5oiio7Xi1",
"s77oslss#i7ll771isiso77lx17>ssiloi1x",
"s4o27si5o>7ss7107il1o>5ss7>>5ss7>15s",
"ss#i7xl272ssilo77lx17>slsi155ll5i>ss",
"7>i#7727:v0ii*i.i11u%tXs71v;7757&v*7",
"1sXio7i#l;s71l@souiXl.s11i@l*sios$i5",
"i.j@so>i-s@77Xs%u91u$l%u7.x;io>s%l%u",
"ol+s@77@x+s>os.sX55XlXi>0s+l#77@k$i9",
"7>sXi>1s@soisos.i15sXso7iol.s5>s.lX7",
">i.iosi>7@s11iX5o77oiX7e1s.7>5u0i.iw",
"le50ssis>75sz>5osinlou5llw7olisu*u5i",
"si>0vllw>15il1o1vvl5017ul5>>5ss10>7u"
};
