/* XPM */
static char *left_wall[] = {
/* columns rows colors chars-per-pixel */
"42 42 42 1 ",
"  c #25131A",
". c #24161C",
"X c #2C171B",
"o c #2E191B",
"O c #321C1C",
"+ c #381F1D",
"@ c #3F231D",
"# c #2C1B21",
"$ c #222222",
"% c #342021",
"& c #372222",
"* c #3C2523",
"= c #45271E",
"- c #412823",
"; c #483B3A",
": c #54413F",
"> c #634732",
", c #724736",
"< c #73513C",
"1 c #5C4543",
"2 c #614845",
"3 c #7A5642",
"4 c #775C55",
"5 c #815739",
"6 c #875C38",
"7 c #895C3E",
"8 c #95633F",
"9 c #99653F",
"0 c #A0673E",
"q c #A16B3E",
"w c #855A41",
"e c #8E5F41",
"r c #845E4A",
"t c #BC4C51",
"y c #876048",
"u c #946240",
"i c #D1851E",
"p c #AA8D7A",
"a c #FFD569",
"s c #90919E",
"d c #D3BFA9",
"f c #ADC1CF",
/* pixels */
"ppppddd44;;;;;;$$444:$$<<>>>yrr$$$$$$$$$$$",
"ppppddd44;;;;;;$$4441;;888888ee;;;;;;;;;;$",
"ppppddd44;;;;;;$$4441;;888888ee;;;;;;;;;;$",
"ppppddd44;;;;;;$$$$$6qq009===eeeee333;;;;$",
"ppppddd44;;;;;;$$$$$6qq000===eeeee333;;;;$",
"ppppddd44;;;;;;$$$$$599OOOtttOOeeeeee;;;;$",
"ppppddd44;;;$$$$$444799OOOtttOOeeeeee;;;;$",
"ppppddd44;;;$$$$$444799OOOtttOOeeeeee;;;;$",
"$$$$$$$$$$$$$$$$$444-@@ttttttttXXXuuu89;;$",
"$$$$$$$$$$$$$$$$$444-@@ttttttttXXXuuu99;;$",
"$$$$$$$$$$$$$$$$$444-@@ttttttttXXXu8u99;;$",
"ppppddd44;;;;;;$$444-@@tttiiitttttOOOuu;;$",
"ppppddd44;;;;;;$$444-@@tttiiitttttOOO88;;$",
"ppppddd44;;;;;;$$444*++iiiiiittttt   ee;;$",
"ppppddd44;;;;;;$$444*++iiiiiittttt   ee;;$",
"ppppddd44;;;;;;$$444*++iiiiiittttt   ee;;$",
"ppppddd44;;;;;;$$444%ooaaaiiiiittt   ee;;$",
"ppppddd44;;;;;;$$444&ooaaaiiiiittt   ee;;$",
"ppppddd44;;;;;;$$444&ooaaaiiiiittt   ee;;$",
"ppppddd44;;;;;;$$$$$&OOaaaaaaiittt@@@ww;;$",
"ppppddd44;;;;;;$$$$$&OOaaaaaaiittt=@=ww;;$",
"ppppddd44;;;;;;$$$$$#  sssfffff   qqu33;;$",
"$$$$$$$$$$$$$$$$$444#  sssfffff   qqq33;;$",
"$$$$$$$$$$$$$$$$$444#  sssfffff  Xqqq33;;$",
";pppddd44;;;;;;$$444#  ,,,,,,,,ooo33312;;$",
";pppddd44;;;;;;$$444#  ,,,,,,,,ooo33312;;$",
";pppddd44;;;;;;$$444#  ssssss  ;;;;;;;;;;$",
"ppppddd44;;;;;;$$$$$.  ssssss  ;;;;;;;;;;$",
"ppppddd44;;;;;;$$$$$.  ssssss  ;;;;;;;;;;$",
"ppppddd44;;;;;;$$$$$.  ,,,,,,  ;;;;;;;;;;$",
"ppppddd44;;;$$$$$444#  ,,,,,,  ;;;;;;;;;;$",
"ppppddd44;;;$$$$$444#  ,,,,,,  ;;;;;;;;;;$",
"ppppddd44;;;;;;$$444#  ,,,,,,  ;;;;;;;;;;$",
"ppppddd44;;;;;;$$444#  ,,,,,,  ;;;;;;;;;;$",
"ppppddd44;;;;;;$$444#        ;;;;;;;;;;;;$",
"pppp;;;44;;;;;;$$444#        ;;;;;;;;;;;;$",
"pppp;;;44;;;;;;$$444#        ;;;;;;;;;;;;$",
"pppp;;;44;;;;;;$$444;;;;;;;;;;;;;;;;;;;;;$",
"ppppddd44;;;;;;$$444;;;;;;;;;;;;;;;;;;;;;$",
"ppppddd44;;;;;;$$444;;;;;;;;;;;;;;;;;;;;;$",
"$$$$$$$$$$$$$$$$$444;;;;;;;;;;;;;;;;;;;;;$",
"$$$$$$$$$$$$$$$$$444$$$$$$$$$$$$$$$$$$$$$$"
};
