/* XPM */
static char *purple_wall[] = {
/* columns rows colors chars-per-pixel */
"42 42 5 1 ",
"  c #222222",
". c #483B3A",
"X c #775C55",
"o c #AA8D7A",
"O c #D3BFA9",
/* pixels */
"oooooooo   ooooooooooo  ...ooooooooooooo  ",
"oooooooo   ooooooooooo  oooooooooooooooo  ",
"oooooooo   ooooooooooo  oooooooooooooooo  ",
"oooooooo   ooooooooooo  oooooooooooooooo  ",
"OOOOOOOO   OOOOOOOOOOO  OOOOOOOOOOO...OO  ",
"OOOOOOOO   OOOOOOOOOOO  OOOOOOOOOOO...OO  ",
"OOOOOOOO   OOOOOOOOOOO  OOOOOOOOOOO...OO  ",
"XXXXXXXX   XXXXXXXXXXX  XXXXXXXXXXXXXXXX  ",
"XXXXXXXX   XXXXXXXXXXX  XXXXXXXXXXXXXXXX  ",
"........   ...........  ................  ",
"........   ...........  ................  ",
"........   ...........  ................  ",
"......     ...........  ......  ........  ",
"......     ...........  ......  ........  ",
"......     ...........  ......  ........  ",
"                                          ",
"                                          ",
"XXX   XXXXXXXXXXXXX   XXXXX   XXXXXXXXXXXX",
"XXX   XXXXXXXXXXXXX   XXXXX   XXXXXXXXXXXX",
"XXX   XXXXXXXXXXXXX   XXXXX   XXXXXXXXXXXX",
"...   .....................   ............",
"...   .....................   ............",
"...   .....................   ............",
"...   ..   ................   ............",
"...   ..   ................   ............",
"                                          ",
"                                          ",
"                                          ",
"XXXXXXXXXXX     XXXXXXXXXXXXXXXXXXX   XXXX",
"XXXXXXXXXXX     XXXXXXXXXXXXXXXXXXX   XXXX",
"XXXXXXXXXXX     XXXXXXXXXXXXXXXXXXX   XXXX",
"...........   .....................   ....",
"...........   .....................   ....",
"...........   ..........   ........   ....",
"...........   ..........   ........   ....",
"...........   ..........   ........   ....",
"                                          ",
"                                          ",
"                                          ",
"   XXXXXXXXXXXXXXXXXXX  XXXXXXXXXXXXXXXXXX",
"   XXXXXXXXXXXXXXXXXXX  XXXXXXXXXXXXXXXXXX",
"   ...................  .................."
};
