/* XPM */
static char *right_wall[] = {
/* columns rows colors chars-per-pixel */
"42 42 42 1 ",
"  c #25131A",
". c #24161C",
"X c #2C171B",
"o c #2E191B",
"O c #321C1C",
"+ c #381F1D",
"@ c #3F231D",
"# c #2C1B21",
"$ c #222222",
"% c #342021",
"& c #372222",
"* c #3C2523",
"= c #45271E",
"- c #412823",
"; c #483B3A",
": c #54413F",
"> c #634732",
", c #724736",
"< c #73513C",
"1 c #5C4543",
"2 c #614845",
"3 c #7A5642",
"4 c #775C55",
"5 c #815739",
"6 c #875C38",
"7 c #895C3E",
"8 c #95633F",
"9 c #99653F",
"0 c #A0673E",
"q c #A16B3E",
"w c #855A41",
"e c #8E5F41",
"r c #845E4A",
"t c #BC4C51",
"y c #876048",
"u c #946240",
"i c #D1851E",
"p c #AA8D7A",
"a c #FFD569",
"s c #90919E",
"d c #D3BFA9",
"f c #ADC1CF",
/* pixels */
"$$$$$$$$$$$rry>>><<$$:444$$;;;;;;44dddpppp",
"$;;;;;;;;;;ee888888;;1444$$;;;;;;44dddpppp",
"$;;;;;;;;;;ee888888;;1444$$;;;;;;44dddpppp",
"$;;;;333eeeee===900qq6$$$$$;;;;;;44dddpppp",
"$;;;;333eeeee===000qq6$$$$$;;;;;;44dddpppp",
"$;;;;eeeeeeOOtttOOO995$$$$$;;;;;;44dddpppp",
"$;;;;eeeeeeOOtttOOO997444$$$$$;;;44dddpppp",
"$;;;;eeeeeeOOtttOOO997444$$$$$;;;44dddpppp",
"$;;99uuuXXXtttttttt@@-444$$$$$$$$$$$$$$$$$",
"$;;99uuuXXXtttttttt@@-444$$$$$$$$$$$$$$$$$",
"$;;99uuuXXXtttttttt@@-444$$$$$$$$$$$$$$$$$",
"$;;uuOOOtttttiiittt@@-444$$;;;;;;44dddpppp",
"$;;uuOOOtttttiiittt@@-444$$;;;;;;44dddpppp",
"$;;ee   tttttiiiiii++*444$$;;;;;;44dddpppp",
"$;;ee   tttttiiiiii++*444$$;;;;;;44dddpppp",
"$;;ee   tttttiiiiii++*444$$;;;;;;44dddpppp",
"$;;e7   tttiiiiiaaaoo%444$$;;;;;;44dddpppp",
"$;;e8   tttiiiiiaaaoo&444$$;;;;;;44dddpppp",
"$;;ee   tttiiiiiaaaoo&444$$;;;;;;44dddpppp",
"$;;ww@@@tttiiaaaaaaOO&$$$$$;;;;;;44dddpppp",
"$;;ww==@tttiiaaaaaaOO&$$$$$;;;;;;44dddpppp",
"$;;33qqq   fffffsss  #$$$$$;;;;;;44dddpppp",
"$;;33qq9   fffffsss  #444$$$$$$$$$$$$$$$$$",
"$;;33qq9   fffffsss  #444$$$$$$$$$$$$$$$$$",
"$;;22333ooo,,,,,,,,  #444$$;;;;;;44dddppp;",
"$;;22333ooo,,,,,,,,  #444$$;;;;;;44dddppp;",
"$;;;;;;;;;;  ssssss  #444$$;;;;;;44dddppp;",
"$;;;;;;;;;;  ssssss  .$$$$$;;;;;;44dddpppp",
"$;;;;;;;;;;  ssssss  .$$$$$;;;;;;44dddpppp",
"$;;;;;;;;;;  ,,,,,,  .$$$$$;;;;;;44dddpppp",
"$;;;;;;;;;;  ,,,,,,  #444$$$$$;;;44dddpppp",
"$;;;;;;;;;;  ,,,,,,  #444$$$$$;;;44dddpppp",
"$;;;;;;;;;;  ,,,,,,  #444$$;;;;;;44dddpppp",
"$;;;;;;;;;;  ,,,,,,  #444$$;;;;;;44dddpppp",
"$;;;;;;;;;;;;        #444$$;;;;;;44dddpppp",
"$;;;;;;;;;;;;        #444$$;;;;;;44;;;pppp",
"$;;;;;;;;;;;;        #444$$;;;;;;44;;;pppp",
"$;;;;;;;;;;;;;;;;;;;;;444$$;;;;;;44;;;pppp",
"$;;;;;;;;;;;;;;;;;;;;;444$$;;;;;;44dddpppp",
"$;;;;;;;;;;;;;;;;;;;;;444$$;;;;;;44dddpppp",
"$;;;;;;;;;;;;;;;;;;;;;444$$$$$$$$$$$$$$$$$",
"$$$$$$$$$$$$$$$$$$$$$$444$$$$$$$$$$$$$$$$$"
};
