/* XPM */
static char *top_right_corner[] = {
/* columns rows colors chars-per-pixel */
"42 42 14 1 ",
"  c gray13",
". c #222222",
"X c #2F2929",
"o c #3A3231",
"O c #3D3533",
"+ c #483B39",
"@ c #483B3A",
"# c #5B4844",
"$ c #775C55",
"% c #7C695C",
"& c #AA8E79",
"* c #AA8D7A",
"= c #A69384",
"- c #D3BFA9",
/* pixels */
"********...***********..@@@*************.%",
"********...***********..****************%*",
"********...***********..******************",
"********...***********..******************",
"--------...-----------..-----------@@=****",
"--------...-----------..-----------@=-****",
"--------...-----------..-----------=--****",
"$$$$$$$$...$$$$$$$$$$$..$$$$$$$$$$$---****",
"$$$$$$$$...$$$$$$$$$$$..$$$$$$$$$O........",
"@@@@@@@@...@@@@@@@@@@@..@@@@@@@@X.........",
"@@@@@@@@...@@@@@@@@@@@..@@@@@@@X..........",
"@@@@@@@@...@@@@@@@@@@@..@@@@@@@@@$$---****",
"@@@@@@.....@@@@@@@@@@@..@@++@@@@@$$---****",
"@@@@@@.....@@@@@@@@@@@..@@@+@@@@@$$---****",
"@@@@@@.....@@@@@@@@@@@..@@++@@@@@$$---****",
"...........................@@@@@@$$---****",
"...........................@@@@@@$$---****",
"$$$...$$$$$$$$$$$$$...$$$..@@@@@@$$---****",
"$$$...$$$$$$$$$$$$$...$$$..@@@@@@$$---****",
"$$$...$$$$$$$$$$$$$...O....+@@@@@$$---****",
"@@@...@@@@@@@@@@@@@@@+.....@@@@@@$$---****",
"@@@...@@@@@@@@@@@@@@+@.....@@@@@@$$---****",
"@@@...@@@@@@@@@@@@@+@@$$$.................",
"@@@...@@...@@@@@@@+@@@$$$.................",
"@@@...@@...@@@@@@+@@@@$$$..@@@@@@$$---***@",
".................@@@@@$$$..@@@@@@$$---***@",
"............... .+@@@@$$$..@@@@@@$$---***@",
".............. ............@@@@@@$$---****",
"$$$$$$$$$$$..#.............@@@@@@$$---****",
"$$$$$$$$$$$.#$.............@@@@@@$$---****",
"$$$$$$$$$$$#$$...@@@@@$$$.....@@@$$---****",
"@@@@@@@@@@+$$$...@@@@@$$$.....@@@$$---****",
"@@@@@@@@@+@$$$...@@@@@$$$..@@@@@@$$---****",
"@@@@@@@@+@@$$$...@@@@@$$$..@@@@@@$$---****",
"@@@@@@@+@@@$$$...@@@@@$$$..@@@@@@$$---****",
"@@@@@@X..........@@@@@$$$..@@@@@@$$@@@****",
"..... ...........@@@@@$$$..@@@@@@$$@@@****",
".... ............@@@@@$$$..@@@@@@$$@@@****",
"... ..@@@@@$$$...@@@@@$$$..@@@@@@$$---****",
"..#...@@@@@$$$...@@@@@$$$..@@@@@@$$---****",
".#$...@@@@@$$$...@@@@@$$$.................",
"o$$...@@@@@$$$...@@@@@$$$................."
};
