/* XPM */
static char *top_left_corner[] = {
/* columns rows colors chars-per-pixel */
"42 42 14 1 ",
"  c gray13",
". c #222222",
"X c #2D2929",
"o c #3A3231",
"O c #3C3333",
"+ c #483A3A",
"@ c #483B3A",
"# c #5D4A45",
"$ c #765C55",
"% c #775C55",
"& c #826D60",
"* c #AA8D7A",
"= c #AB9989",
"- c #D3BFA9",
/* pixels */
"&.*************@@@..***********...********",
"*&****************..***********...********",
"******************..***********...********",
"******************..***********...********",
"****=@@-----------..-----------...--------",
"****-=@-----------..-----------...--------",
"****--=-----------..-----------...--------",
"****---$%%%%%%%%%%..%%%%%%%%%%%...%%%%%%%%",
"........o%%%%%%%%%..%%%%%%%%%%%...%%%%%%%%",
".........X@@@@@@@@..@@@@@@@@@@@...@@@@@@@@",
"..........X@@@@@@@..@@@@@@@@@@@...@@@@@@@@",
"****---%%@@@@@@@@@..@@@@@@@@@@@...@@@@@@@@",
"****---%%@@@@@@@@@..@@@@@@@@@@@.....@@@@@@",
"****---%%@@@@@@@@@..@@@@@@@@@@@.....@@@@@@",
"****---$%@@@@@@@@@..@@@@@@@@@@@.....@@@@@@",
"****---$%@@@@@@...........................",
"****---%%@@@@@@...........................",
"****---%%@@@@@@..%%%...$%$%%%%%%%%%%...%%%",
"****---%%@@@@@@..%%%...$%%%%%%%%%%%%...%%%",
"****---%%@@@@@@....o...$%%%%%%%%%%%%...%%%",
"****---%%@@@@@@.....++@@@@@@@@@@@@@@...@@@",
"****---%%@@@@@@.....++@@@@@@@@@@@@@@...@@@",
".................%%%++++@@@@@@@@@@@@...@@@",
".................%%%++++@@@@@@@...@@...@@@",
"@***---%%@@@@@@..%%%@@@@@@@@@@@...@@...@@@",
"@***---%%@@@@@@..%%$@@@@@.................",
"@***---%%@@@@@@..%$$@@@@@.................",
"****---%%@@@@@@...........................",
"****---%%@@@@@@.............#..%%%%%%%%%%%",
"****---%%@@@@@@.............%#.%%%%%%%%%%%",
"****---%%@@@.....%%%@@@@+...%%#%%%%%%%%%%%",
"****---%%@@@.....%%%@@@++...%%%+@@@@@@@@@@",
"****---%%@@@@@@..%%%@@@@@...%%%@@@@@@@@@@@",
"****---%%@@@@@@..%%%@@@@@...%%%@@@@@@@@@@@",
"****---%%@@@@@@..%%%@@@@@...%%%@@@@@@@@@@@",
"****@@@%%@@@@@@..%%%@@@@@..........X@@@@@@",
"****@@@%%@@@@@@..%%%@@@@@.................",
"****@@@%%@@@@@@..%%%@@@@@............ ....",
"****---%%@@@@@@..%%%@@@@@...%%%@@@@@.. ...",
"****---%%@@@@@@..%%%@@@@@...%%%@@@@@...#..",
".................%%%@@@@@...%%%@@@@@...%#.",
".................%%%@@@@@...%%%@@@@@...%%O"
};
