/* XPM */
static char *tower[] = {
/* columns rows colors chars-per-pixel */
"42 42 10 1 ",
"  c black",
". c #0D0C0C",
"X c #171212",
"o c #171312",
"O c #261F1E",
"+ c #222222",
"@ c #483B3A",
"# c #594847",
"$ c #775C55",
"% c #AA8D7A",
/* pixels */
"++++++++++++++++++++++++++++++++++++++++++",
"+@@@@@@@@@@@$$$@@@@@$$$@@$$$$$$$$$$$$$$$$+",
"+@@@@@@@@@@@$$     @$$$@     $$$$$$$$$$$$+",
"+@@@@@@@@@@@$$     @$$$@     $$$$$$$$$$$$+",
"+@@@@@@@@@@@  %%%%%     %%%%%  @@@@@@@@$$+",
"+@@@@@@@@@@@  %%###     ###%%  @@@@@@@@$$+",
"+@@@@@@@@@@@  #####     #####  @@@@@@@@$$+",
"+@@@@@@@@   %%     ooooo     %%   @@@@@$$+",
"+@@@@@@@@   ##     ooooo     ##   @@@@@$$+",
"+@@@@@@@@                         @@@@@$$+",
"+@@@@@@@@                         @@@@@$$+",
"+@@@@@@@@                         @@@@@$$+",
"+@@@@@@@@   %%               %%   @@@@@$$+",
"+@@@@@@@@   %%               %%   @@@@@$$+",
"+@@@@@@@@   OO%%%%%     %%%%%OO   @@@@@$$+",
"+@@@@@@@@   OO%%%%%     %%%%%OO   @@@@@@@+",
"+@@@@@@@@   OOOOOOO%%%%%OOOOOOO   @@@@@@@+",
"+@@@@@@@@   OOOOOOO%%%%%OOOOOOO   @@@@@$$+",
"+@@@@@@@@   OOOOOOO$$$$$OOOOOOO   @@@@@$$+",
"+@@@@@@@@@@@  OOOOOOOOOOOOOOO  @@@@@@@@$$+",
"+@@@@@@@@@@@  OOOOOOOOOOOOOOO  @@@@@@@@$$+",
"+@@@@@@@@@@@  ..OOOOOOOOOO...  @@@@@@@@$$+",
"+@@@@@@@@@@@  ..OOOOOOOOOO...  @@@@@@@@$$+",
"+@@@@@@@@@@@  ..OOOOOOOOOO...  @@@@@@@@@@+",
"+@@@@@@@@@@@  OO..........OOO  @@@@@@@@@@+",
"+@@@@@@@@@@@  OO..........OOO  @@@@@@@@@@+",
"+@@@@@@@@   $$OOOOOOOOOOOOOOO$$   @@@@@@@+",
"+@@@@@@@@   $$OOOOOOOOOOOOOOO$$   @@@@@@@+",
"+@@@@@@@@   $$OOOOOOOOOOOOOOO$$   @@@@@$$+",
"+@@@@@@@@   $$OOOOOOOOOOOOOOO$$   @@@@@$$+",
"+@@@@@@@@   $$OOOOOOOOOOOOOOO$$   @@@@@$$+",
"+@@@@@@@@   OO$$$$$$$$$$$$$$$OO   @@@@@@@+",
"+@@@@@@XX   OO$$$$$$$$$$$$$$$OO   @@@@@@@+",
"+@@@@@XXo   OO$$$$$$$$$$$$$$$OO   @@@@@@@+",
"+@@@@@XooooX  OOOOOOOOOOOOOOO  @@@@@@@@@@+",
"+@@@@XXooooo  OOOOOOOOOOOOOOO  @@@@@@@@@@+",
"+@@@@oooXXXXoo               oo@@@@@@@@@@+",
"+@@@@oooXXXXoo               oo@@@@@@@@@@+",
"+@@@@@ooXXoXooooXXooooXXoooooo@@@@@@@@@@@+",
"+@@@@@@@@@@oooooooooooXXooo@@@@@@@@@@@@@@+",
"+@@@@@@@@@@@@@@@@@@@@@@@@@@@@@@@@@@@@@@@@+",
"++++++++++++++++++++++++++++++++++++++++++"
};
