/* XPM */
static char *front[] = {
/* columns rows colors chars-per-pixel */
"36 36 227 2 ",
"   c black",
".  c #090909",
"X  c #111111",
"o  c gray7",
"O  c #161616",
"+  c gray9",
"@  c #111719",
"#  c #181818",
"$  c gray11",
"%  c #1E1E1E",
"&  c #28080D",
"*  c #390D10",
"=  c #3E0E11",
"-  c #30171A",
";  c #1A2122",
":  c #1C2325",
">  c gray14",
",  c #242A2B",
"<  c #22292C",
"1  c #252B2D",
"2  c #252C2F",
"3  c #262D2F",
"4  c gray17",
"5  c #2C2C2C",
"6  c #2C2E2F",
"7  c #293032",
"8  c #2B3134",
"9  c #2F3234",
"0  c #313131",
"q  c #313233",
"w  c gray20",
"e  c #303436",
"r  c #303637",
"t  c #313637",
"y  c #353535",
"u  c #34393B",
"i  c #353A3B",
"p  c #343B3B",
"a  c #393F3F",
"s  c #501018",
"d  c #50161E",
"f  c #681520",
"g  c #7A353D",
"h  c #323F44",
"j  c #3B3E40",
"k  c #643C41",
"l  c #354044",
"z  c #3E4343",
"x  c #404343",
"c  c #444646",
"v  c #494949",
"b  c #484A4B",
"n  c #434E52",
"m  c #4C5457",
"M  c #525B5E",
"N  c #62444C",
"B  c #7B535F",
"V  c #4F5E64",
"C  c #565F61",
"Z  c #546367",
"A  c #5C6060",
"S  c #55676D",
"D  c #58686B",
"F  c #5A6A70",
"G  c #5E6F74",
"H  c #62666D",
"J  c #6C616A",
"K  c #61686A",
"L  c #62696B",
"P  c #676C6E",
"I  c #7F6570",
"U  c #67777B",
"Y  c #6C787A",
"T  c #6E7B7D",
"R  c #707B7F",
"E  c #831E25",
"W  c #821C27",
"Q  c #8E2227",
"!  c #9C2031",
"~  c #962C37",
"^  c #962939",
"/  c #9B2D3D",
"(  c #8B333E",
")  c #A3242F",
"_  c #A02131",
"`  c #A62332",
"'  c #A72332",
"]  c #AA2533",
"[  c #AC2533",
"{  c #B22734",
"}  c #B62935",
"|  c #BC2B36",
" . c #BE2B36",
".. c #B72D3D",
"X. c #C12D37",
"o. c #C22D37",
"O. c #C82F38",
"+. c #CD3139",
"@. c #8E3443",
"#. c #883D4B",
"$. c #9B3643",
"%. c #9A3E4D",
"&. c #C53547",
"*. c #C6364A",
"=. c #D23D51",
"-. c #D23E53",
";. c #824754",
":. c #854C58",
">. c #9D4C59",
",. c #A24350",
"<. c #8C5C69",
"1. c #85626A",
"2. c #8C707B",
"3. c #A4727C",
"4. c #AB7079",
"5. c #D0425E",
"6. c #D84C70",
"7. c #D84D72",
"8. c #717F84",
"9. c #957881",
"0. c #A07C83",
"q. c #DE5A8B",
"w. c #6F8189",
"e. c #758287",
"r. c #7A8587",
"t. c #7E8B8E",
"y. c #778C94",
"u. c #7F8B90",
"i. c #7E929A",
"p. c #7F959B",
"a. c gray53",
"s. c #90848E",
"d. c #9F858E",
"f. c #808D90",
"g. c #818D90",
"h. c #988991",
"j. c #998A92",
"k. c #889696",
"l. c #8D9494",
"z. c #829298",
"x. c #829598",
"c. c #80949C",
"v. c #86999D",
"b. c #929999",
"n. c #929B9F",
"m. c #909E9F",
"M. c #A8999F",
"N. c #8C9DA0",
"B. c #9D9FA6",
"V. c #BE9AA2",
"C. c #95A5A7",
"Z. c #9CA0A5",
"A. c #9CA6A7",
"S. c #90A3A9",
"D. c #93A4AB",
"F. c #97A7A9",
"G. c #96A7AD",
"H. c #9AA6A8",
"J. c #9BACB1",
"K. c #9EACB0",
"L. c #9DACB2",
"P. c #9FAEB4",
"I. c #9FB2B4",
"U. c #A1AAAB",
"Y. c #A4ACAC",
"T. c #B2A5A9",
"R. c #A1B0B1",
"E. c #A0B0B6",
"W. c #A2B1B6",
"Q. c #A2B3B7",
"!. c #A6B5B9",
"~. c #A8B7BA",
"^. c #A9B6BB",
"/. c #A9B9BD",
"(. c #A8BABC",
"). c #ACB9BE",
"_. c #B6B9B9",
"`. c #B4BDBD",
"'. c #C39CA2",
"]. c #AEBFC1",
"[. c #B0BEC2",
"{. c #B0C0C2",
"}. c #B3C3C5",
"|. c #B3C4C5",
" X c #B4C4C6",
".X c #BAC7CA",
"XX c #B8C8C9",
"oX c #BDC9CC",
"OX c #BFCACD",
"+X c #BDCDCD",
"@X c #C5C2C5",
"#X c #C0CCCE",
"$X c #C1CDCF",
"%X c #CACACA",
"&X c #C5CFD1",
"*X c #C2D0D1",
"=X c #C3D0D1",
"-X c #C6D3D3",
";X c #C7D2D4",
":X c #CAD3D6",
">X c #CBD3D6",
",X c #CAD5D6",
"<X c #CAD7D7",
"1X c #CDD4D8",
"2X c #D2DBDC",
"3X c #D4DADD",
"4X c #D4DBDD",
"5X c #D1DCDC",
"6X c #D2DDDD",
"7X c #D8DEE0",
"8X c #D9DFE1",
"9X c #D7E0E1",
"0X c #DBE4E4",
"qX c #DFE5E7",
"wX c #E0E6E7",
"eX c #E0E7E7",
"rX c #E2E7E9",
"tX c #E5EAEB",
"yX c #E6EBEC",
"uX c #E9ECEE",
"iX c #E9EEEE",
"pX c #EAEFEF",
"aX c #EFF3F3",
"sX c #F1F4F4",
"dX c #F8FAFA",
"fX c white",
"gX c None",
/* pixels */
"gXgXgXgXgXgXgXgXgXgXgXgXgXgXgXgXgXgXgXgXgXgXgXgXgXgXgXgXgXgXgXgXgXgXgXgX",
"gXgXgXgXgXgXgXgXgXgXgXgXgXgXgXgXgXgXgXgXgXgXgXgXgXgXgXgXgXgXgXgXgXgXgXgX",
"gXgXgXgXgXgXgXgXgXgXgXgXgXgXgXgXgXgXgXgXgXgXgXgXgXgXgXgXgXgXgXgXgXgXgXgX",
"gXgXgXgXgXgXgXgXgXgXgXgXgXgXgXgXgXgXgXgXgXgXgXgXgXgXgXgXgXgXgXgXgXgXgXgX",
"gXgXgXgXgXgXgXgXgXgXgXgXgXgXgXgXgXgXgXgXgXgXgXgXgXgXgXgXgXgXgXgXgXgXgXgX",
"gXgXgXgXgXgXgXgXgXgXgXgXgXgXgXgXgXgXgXgXgXgXgXgXgXgXgXgXgXgXgXgXgXgXgXgX",
"gXgXgXgXgXgXgXgXgXgXgXgXgXgX4 1 8 a z u 2 6 $ gXgXgXgXgXgXgXgXgXgXgXgXgX",
"gXgXgXgXgXgXgXgXgXgXgXgX4 e b g.).,X5X#XP.P j 0 $ gXgXgXgXgXgXgXgXgXgXgX",
"gXgXgXgXgXgXgXgXgXgXgX: u n.iXfXfXfXfXfXfXfX1XL 7 @ gXgXgXgXgXgXgXgXgXgX",
"gXgXgXgXgXgXgXgXgXgX: 8.#XsXfXfXfXfXfXfXfXfXfXeX~.n @ gXgXgXgXgXgXgXgXgX",
"gXgXgXgXgXgXgXgXgX. D 7XfXfXfXfXfXfXfXfXfXfXfXfXfX!.2 $ gXgXgXgXgXgXgXgX",
"gXgXgXgXgXgXgXgX0 e U.sXaXdXfXfXfXfXfXfXfXfXfXaXdXeXL 0 gXgXgXgXgXgXgXgX",
"gXgXgXgXgXgXgXgX. R rXfX5X2XtXdXaX3X,XeXdXaXqX-XiXfXoXe ; gXgXgXgXgXgXgX",
"gXgXgXgXgXgXgX0 1 A.sXfXeX[.H._.Y.v.p.n._.Y.K.=XsXfXeXC 6 gXgXgXgXgXgXgX",
"gXgXgXgXgXgXgX  V 3XfXfXfXeXl.c A `.5Xl.c A `.sXfXfXfXL.1   gXgXgXgXgXgX",
"gXgXgX0 e a z u u.rXfXfXaXdXeXx b.sXfXeXx b.sXaXdXfXfXoXM a x u 0 gXgXgX",
"gXgXgX+ m N.}.W.{.iXfXfX;X9XdXa.%XfXfXfXa.%XaX+XyXfXfX5XW.{.(.e.9 gXgXgX",
"gXgXgXgX> l Y z.Q.yXfXfX^.Q.7XiXiXiXiXiXiXiX&XS.7XfXfX;XS.u.Z , y gXgXgX",
"gXgXgXgXgX+ o l w.,XdXfXK.i..X].-X{.I.=X].=XJ.y.3XfXaXW.S , . w gXgXgXgX",
"gXgXgXgXgXgXgX> h F.0XdXoXp.&Xj.'.9.1.'.9.@XG.D.rXaX,XU , y gXgXgXgXgXgX",
"gXgXgXgXgXgXgXgXo r..X0X,XI.M.,.` *.=...! 4.B.{.0X,X Xu 6 gXgXgXgXgXgXgX",
"gXgXgXgXgXgXgXgX+ m R.+X+X/.>.!  .7.q.=.[ ! d. X+X+Xt.9 gXgXgXgXgXgXgXgX",
"gXgXgXgXgXgXgXgXgXo T |.+X+X3./ { 5.6.&.` %.T.+X+X~.e 6 gXgXgXgXgXgXgXgX",
"gXgXgXgXgXgXgXgXgXgXh x.}.+XW.<.^ {  .` @.s.{.+X(.G ; gXgXgXgXgXgXgXgXgX",
"gXgXgXgXgXgXgXgXgXgXgXl Y C.j.I ;.#.#.#.B 2.Z.k.Z ; gXgXgXgXgXgXgXgXgXgX",
"gXgXgXgXgXgXgXgXgXgXgXgXo l ( ] :.D S J $.[ N , . gXgXgXgXgXgXgXgXgXgXgX",
"gXgXgXgXgXgXgXgXgXgXgXgXgXo Q +.} g g ( o.+.= 6 gXgXgXgXgXgXgXgXgXgXgXgX",
"gXgXgXgXgXgXgXgXgXgXgXgXgX  Q +.o.E f ) O.+.= gXgXgXgXgXgXgXgXgXgXgXgXgX",
"gXgXgXgXgXgXgXgXgXgXgXgXgX  W  .W - # d ) | * gXgXgXgXgXgXgXgXgXgXgXgXgX",
"gXgXgXgXgXgXgXgXgXgXgXgXgXgXs f - y b > d f & gXgXgXgXgXgXgXgXgXgXgXgXgX",
"gXgXgXgXgXgXgXgXgXgXgXgXgXgXgX  w gXgXgX+   gXgXgXgXgXgXgXgXgXgXgXgXgXgX",
"gXgXgXgXgXgXgXgXgXgXgXgXgXgXgXgXgXgXgXgXgXgXgXgXgXgXgXgXgXgXgXgXgXgXgXgX",
"gXgXgXgXgXgXgXgXgXgXgXgXgXgXgXgXgXgXgXgXgXgXgXgXgXgXgXgXgXgXgXgXgXgXgXgX",
"gXgXgXgXgXgXgXgXgXgXgXgXgXgXgXgXgXgXgXgXgXgXgXgXgXgXgXgXgXgXgXgXgXgXgXgX",
"gXgXgXgXgXgXgXgXgXgXgXgXgXgXgXgXgXgXgXgXgXgXgXgXgXgXgXgXgXgXgXgXgXgXgXgX",
"gXgXgXgXgXgXgXgXgXgXgXgXgXgXgXgXgXgXgXgXgXgXgXgXgXgXgXgXgXgXgXgXgXgXgXgX"
};
