/* XPM */
static char *floor_1[] = {
/* columns rows colors chars-per-pixel */
"42 42 3 1 ",
"  c #272A38",
". c #39374A",
"X c #605D6E",
/* pixels */
"                                          ",
" ...........XXX.....XXX..XXXXXXXXXXXXXXXX ",
" ...........XXX.....XXX..XXXXXXXXXXXXXXXX ",
" ...........XXX.....XXX..XXXXXXXXXXXXXXXX ",
" ......................................XX ",
" ......................................XX ",
" ......................................XX ",
" ......................................XX ",
" ......................................XX ",
" ......................................XX ",
" ......................................XX ",
" ......................................XX ",
" ......................................XX ",
" ......................................XX ",
" ......................................XX ",
" ........................................ ",
" ........................................ ",
" ......................................XX ",
" ......................................XX ",
" ......................................XX ",
" ......................................XX ",
" ......................................XX ",
" ......................................XX ",
" ........................................ ",
" ........................................ ",
" ........................................ ",
" ........................................ ",
" ........................................ ",
" ......................................XX ",
" ......................................XX ",
" ......................................XX ",
" ........................................ ",
" ........................................ ",
" ........................................ ",
" ........................................ ",
" ........................................ ",
" ........................................ ",
" ........................................ ",
" ........................................ ",
" ........................................ ",
" ........................................ ",
"                                          "
};
