/* XPM */
static char *floor_1_v2[] = {
/* columns rows colors chars-per-pixel */
"42 42 3 1 ",
"  c #222222",
". c #483B3A",
"X c #775C55",
/* pixels */
"                                          ",
" ...........XXX.....XXX..XXXXXXXXXXXXXXXX ",
" ...........XXX.....XXX..XXXXXXXXXXXXXXXX ",
" ...........XXX.....XXX..XXXXXXXXXXXXXXXX ",
" ......................................XX ",
" ......................................XX ",
" ......................................XX ",
" ......................................XX ",
" ......................................XX ",
" ......................................XX ",
" ......................................XX ",
" ......................................XX ",
" ......................................XX ",
" ......................................XX ",
" ......................................XX ",
" ........................................ ",
" ........................................ ",
" ......................................XX ",
" ......................................XX ",
" ......................................XX ",
" ......................................XX ",
" ......................................XX ",
" ......................................XX ",
" ........................................ ",
" ........................................ ",
" ........................................ ",
" ........................................ ",
" ........................................ ",
" ......................................XX ",
" ......................................XX ",
" ......................................XX ",
" ........................................ ",
" ........................................ ",
" ........................................ ",
" ........................................ ",
" ........................................ ",
" ........................................ ",
" ........................................ ",
" ........................................ ",
" ........................................ ",
" ........................................ ",
"                                          "
};
