/* XPM */
static char *collectible[] = {
/* columns rows colors chars-per-pixel */
"42 42 30 1 ",
"  c black",
". c #030000",
"X c #171212",
"o c #222222",
"O c #483B3A",
"+ c #775C55",
"@ c #CE8700",
"# c #CC8800",
"$ c #CE8900",
"% c #EAB400",
"& c #EAB900",
"* c #EFB900",
"= c #F2B600",
"- c #F3B800",
"; c #F2B900",
": c #F5BA00",
"> c #F2BC00",
", c #F3B804",
"< c #F4BB07",
"1 c #F5BC07",
"2 c #F5BD07",
"3 c #F1BE08",
"4 c #F3F7F2",
"5 c #F3F7F6",
"6 c #F5F8F6",
"7 c #F6F8F7",
"8 c #F3F9F9",
"9 c #F4F9F9",
"0 c #F6F8F8",
"q c #F9F9F9",
/* pixels */
"oooooooooooooooooooooooooooooooooooooooooo",
"oOOOOOOOOOOO+++OOOOO+++OO++++++++++++++++o",
"oOOOOOOOOOOO+++OOOOO+++OO++++++++++++++++o",
"oOOOOOOOOOOO+++OOOOO+++OO++++++++++++++++o",
"oOOOOOOOOOOOOOOOOOOOOOOOOOOOOOOOOOOOOOO++o",
"oOOOOOOOOOOOOOOOOOOOOOOOOOOOOOOOOOOOOOO++o",
"oOOOOOOOOOOOOOOOOOOOOOOOOOOOOOOOOOOOOOO++o",
"oOOOOOOOOOOOOOOOOOOOOOOOOOOOOOOOOOOOOOO++o",
"oOOOOOOOOOOOOOOO          OOOOOOOOOOOOO++o",
"oOOOOOOOOOOOOOOO          OOOOOOOOOOOOO++o",
"oOOOOOOOOOOOOO  &::=:  ::>  OOOOOOOOOOO++o",
"oOOOOOOOOOOOOO  %;:;;  :;>  OOOOOOOOOOO++o",
"oOOOOOOOOOOOOO  %;:;=  ;,>  OOOOOOOOOOO++o",
"oOOOOOOOOOOO  ;;;$@76::   :;  OOOOOOOOO++o",
"oOOOOOOOOOOO  =;;@$60::   :;  OOOOOOOOO++o",
"oOOOOOOOOO  ;;$$$$@@@99*:>  qq  OOOOOOOOOo",
"oOOOOOOOOO  =;$$$$@$@87;:>  qq  OOOOOOOOOo",
"oOOOOOOOOO  ;;=;=;;@$@$=;>  9q  OOOOOOO++o",
"oOOOOOOOOO  ;;=;;;*@@$@;;*  9q  OOOOOOO++o",
"oOOOOOOOOO  ;=;;=@@;;@$;;>  ::  OOOOOOO++o",
"oOOOOOOOOO  ;;==*@@=;@$=;*  ;;  OOOOOOO++o",
"oOOOOOOOOO  =;;;=@@:;@@;;>  ;:  OOOOOOO++o",
"oOOOOOOOOO  ;;458;;;;@$;;>  ;;  OOOOOOO++o",
"oOOOOOOOOO  =;457;:;;$$=;>  ;:  OOOOOOOOOo",
"oOOOOOOOOO  ;;;:999=:=;;;>  ;:  OOOOOOOOOo",
"oOOOOOOOOO  =:;:698:;;;;;>  ;;  OOOOOOOOOo",
"oOOOOOOOOOOO  :;;:=;;;;   :;  OOOOOOOOOOOo",
"oOOOOOOOOOOO  ;;;;;;;:;   :;  OOOOOOOOOOOo",
"oOOOOOOOOOOO  22::=;;<1   <1  OOOOOOOOO++o",
"oOOOOOOOOOOOOO  &;;::  :;>  OOOOOOOOOOO++o",
"oOOOOOOOOOOOOX  :;;:;  :;3  XOOOOOOOOOO++o",
"oOOOOOOOOOOOXXXX          XXXXOOOOOOOOOOOo",
"oOOOOOOOOOOXXXXX          XXXXXOOOOOOOOOOo",
"oOOOOOOOOOOXXXXXXXXXXXXXXXXXXXXOOOOOOOOOOo",
"oOOOOOOOOOOOXXXXXXXXXXXXXXXXXOOOOOOOOOOOOo",
"oOOOOOOOOOOOOOOXXXXXXXXXXXXOOOOOOOOOOOOOOo",
"oOOOOOOOOOOOOOOOOOXXXXXXOOOOOOOOOOOOOOOOOo",
"oOOOOOOOOOOOOOOOOOOOOOOOOOOOOOOOOOOOOOOOOo",
"oOOOOOOOOOOOOOOOOOOOOOOOOOOOOOOOOOOOOOOOOo",
"oOOOOOOOOOOOOOOOOOOOOOOOOOOOOOOOOOOOOOOOOo",
"oOOOOOOOOOOOOOOOOOOOOOOOOOOOOOOOOOOOOOOOOo",
"oooooooooooooooooooooooooooooooooooooooooo"
};
