/* XPM */
static char *floor_with_coin[] = {
/* columns rows colors chars-per-pixel */
"42 42 32 1 ",
"  c black",
". c #010100",
"X c #222222",
"o c #483B3A",
"O c #775C55",
"+ c #CB8700",
"@ c #CE8700",
"# c #CF8700",
"$ c #CD8900",
"% c #CF8800",
"& c #DCB604",
"* c #EEB300",
"= c #EEB500",
"- c #ECB705",
"; c #EABA00",
": c #ECB902",
"> c #F1B704",
", c #F2B800",
"< c #F3B900",
"1 c #F4B800",
"2 c #F6B900",
"3 c #F3F6EB",
"4 c #F6FAEB",
"5 c #F4F7F6",
"6 c #F3F8F5",
"7 c #F4F8F7",
"8 c #F6F8F7",
"9 c #F2F8F8",
"0 c #F4F8F8",
"q c #F6F8F8",
"w c #F7F8F8",
"e c #F7F8F9",
/* pixels */
"XXXXXXXXXXXXXXXXXXXXXXXXXXXXXXXXXXXXXXXXXX",
"XoooooooooooOOOoooooOOOooOOOOOOOOOOOOOOOOX",
"XoooooooooooOOOoooooOOOooOOOOOOOOOOOOOOOOX",
"XoooooooooooOOOoooooOOOooOOOOOOOOOOOOOOOOX",
"XooooooooooooooooooooooooooooooooooooooOOX",
"Xooooooooooooooo         ooooooooooooooOOX",
"Xooooooooooooooo         ooooooooooooooOOX",
"Xooooooooooooooo         ooooooooooooooOOX",
"Xooooooooooooo  *,,,,,,,2   oooooooooooOOX",
"Xooooooooooooo  -21,,,,,2   oooooooooooOOX",
"Xooooooooooooo  :2<,,1,,<   oooooooooooOOX",
"Xoooooooooo   2<350#$$,,<<<<   ooooooooOOX",
"Xoooooooooo   22558+$$<<<<<:   ooooooooOOX",
"Xoooooooooo   <<559#+#<<<<<<   ooooooooOOX",
"Xooooooo   22>8q#####$$$$<<<<<<   oooooOOX",
"Xooooooo   22>qq++###$#$$<<<<<<   oooooooX",
"Xooooooo   22&e9$#$#$##++<<<,<<   oooooooX",
"Xoooo   222555$+$##2:<<<<$++<<<<,2   ooOOX",
"Xoooo   2<2555$##$$<<<:<<###<<<<,,   ooOOX",
"Xoooo   2<25w4#$$#$<:<<,<+$#<,,,<2   ooOOX",
"Xoooo   <,,###++#+#$#$<<<,,,#$$21,   ooOOX",
"Xoooo   <<<##+###$####<<<1,,+##,,1   ooOOX",
"Xoooo   2,,#######$###<<,1<,###<1,   ooOOX",
"Xoooo   <,,<<<<<$$$<<<<,,007<<<,<<   ooooX",
"Xoooo   <<<<<<<,$$$,,2<,15072<<<<<   ooooX",
"Xoooo   <<<<<<<,$$#,,,<,2577<<<<<<   ooooX",
"Xooooooo   <<<,,<<<,,1775<2<<<<   oooooooX",
"Xooooooo   <:<<,,,<<<15752,2<<2   oooooooX",
"Xooooooo   <<2<<<<<<227751,2,2<   oooooOOX",
"Xoooooooooo   :<<,,755:<111,   ooooooooOOX",
"Xoooooooooo   <,,,1550<22,,,   ooooooooOOX",
"Xoooooooooo   <,,<<7001,212<   ooooooooooX",
"Xooooooooooooo  =2<<<,<<,   oooooooooooooX",
"Xooooooooooooo  -<<2<2<<,   oooooooooooooX",
"Xooooooooooooo  :<22<2<<<   oooooooooooooX",
"Xooooooooooooooo         ooooooooooooooooX",
"Xooooooooooooooo         ooooooooooooooooX",
"Xooooooooooooooo         ooooooooooooooooX",
"XooooooooooooooooooooooooooooooooooooooooX",
"XooooooooooooooooooooooooooooooooooooooooX",
"XooooooooooooooooooooooooooooooooooooooooX",
"XXXXXXXXXXXXXXXXXXXXXXXXXXXXXXXXXXXXXXXXXX"
};
